M48
; DRILL file KiCad 10.0.2 date 2026-06-01T17:35:08
; FORMAT={-:-/ absolute / metric / decimal}
; #@! TF.CreationDate,2026-06-01T17:35:08-03:00
; #@! TF.GenerationSoftware,Kicad,Pcbnew,10.0.2
; #@! TF.FileFunction,Plated,1,2,PTH
FMAT,2
METRIC
; #@! TA.AperFunction,Plated,PTH,ComponentDrill
T1C0.762
; #@! TA.AperFunction,Plated,PTH,ComponentDrill
T2C1.000
%
G90
G05
T1
X69.037Y-98.722
X69.037Y-103.802
X74.117Y-111.422
X79.197Y-111.422
X84.277Y-111.422
X89.358Y-113.962
X91.897Y-113.962
X94.438Y-113.962
X96.977Y-113.962
X99.517Y-113.962
X102.057Y-113.962
X104.597Y-98.722
X104.597Y-103.802
X117.0Y-122.8
X117.0Y-125.34
X117.0Y-127.88
X117.0Y-130.42
X117.0Y-132.96
X117.0Y-135.5
X127.16Y-122.8
X127.16Y-125.34
X127.16Y-127.88
X127.16Y-130.42
X127.16Y-132.96
X127.16Y-135.5
T2
X80.0Y-122.0
X82.54Y-122.0
X96.0Y-124.5
X96.0Y-127.04
X96.0Y-129.58
X96.0Y-132.12
X119.0Y-99.96
X119.0Y-102.5
X147.0Y-83.44
X147.0Y-85.98
X147.0Y-88.52
X147.0Y-91.06
X147.0Y-93.6
X147.0Y-96.14
X147.0Y-98.68
X147.0Y-101.22
X147.0Y-103.76
X147.0Y-106.3
X147.0Y-108.84
X147.0Y-111.38
X147.0Y-113.92
X147.0Y-116.46
X147.0Y-119.0
X174.94Y-83.44
X174.94Y-85.98
X174.94Y-88.52
X174.94Y-91.06
X174.94Y-93.6
X174.94Y-96.14
X174.94Y-98.68
X174.94Y-101.22
X174.94Y-103.76
X174.94Y-106.3
X174.94Y-108.84
X174.94Y-111.38
X174.94Y-113.92
X174.94Y-116.46
X174.94Y-119.0
M30
