%TF.GenerationSoftware,KiCad,Pcbnew,10.0.3*%
%TF.CreationDate,2026-06-19T12:05:14-03:00*%
%TF.ProjectId,pcb,7063622e-6b69-4636-9164-5f7063625858,rev?*%
%TF.SameCoordinates,Original*%
%TF.FileFunction,Copper,L2,Bot*%
%TF.FilePolarity,Positive*%
%FSLAX46Y46*%
G04 Gerber Fmt 4.6, Leading zero omitted, Abs format (unit mm)*
G04 Created by KiCad (PCBNEW 10.0.3) date 2026-06-19 12:05:14*
%MOMM*%
%LPD*%
G01*
G04 APERTURE LIST*
%ADD10C,0.500000*%
%TA.AperFunction,NonConductor*%
%ADD11C,0.500000*%
%TD*%
%TA.AperFunction,ComponentPad*%
%ADD12C,1.600000*%
%TD*%
%TA.AperFunction,ComponentPad*%
%ADD13O,2.000000X3.000000*%
%TD*%
%TA.AperFunction,ComponentPad*%
%ADD14C,2.400000*%
%TD*%
%TA.AperFunction,ComponentPad*%
%ADD15C,2.500000*%
%TD*%
%TA.AperFunction,ComponentPad*%
%ADD16O,3.000000X2.000000*%
%TD*%
%TA.AperFunction,ComponentPad*%
%ADD17O,3.400000X2.000000*%
%TD*%
%TA.AperFunction,Conductor*%
%ADD18C,1.500000*%
%TD*%
G04 APERTURE END LIST*
D10*
D11*
X109114661Y-44249714D02*
X108828947Y-44106857D01*
X108828947Y-44106857D02*
X108400375Y-44106857D01*
X108400375Y-44106857D02*
X107971804Y-44249714D01*
X107971804Y-44249714D02*
X107686089Y-44535428D01*
X107686089Y-44535428D02*
X107543232Y-44821142D01*
X107543232Y-44821142D02*
X107400375Y-45392571D01*
X107400375Y-45392571D02*
X107400375Y-45821142D01*
X107400375Y-45821142D02*
X107543232Y-46392571D01*
X107543232Y-46392571D02*
X107686089Y-46678285D01*
X107686089Y-46678285D02*
X107971804Y-46964000D01*
X107971804Y-46964000D02*
X108400375Y-47106857D01*
X108400375Y-47106857D02*
X108686089Y-47106857D01*
X108686089Y-47106857D02*
X109114661Y-46964000D01*
X109114661Y-46964000D02*
X109257518Y-46821142D01*
X109257518Y-46821142D02*
X109257518Y-45821142D01*
X109257518Y-45821142D02*
X108686089Y-45821142D01*
X110543232Y-47106857D02*
X110543232Y-44106857D01*
X113686089Y-47106857D02*
X112686089Y-45678285D01*
X111971803Y-47106857D02*
X111971803Y-44106857D01*
X111971803Y-44106857D02*
X113114660Y-44106857D01*
X113114660Y-44106857D02*
X113400375Y-44249714D01*
X113400375Y-44249714D02*
X113543232Y-44392571D01*
X113543232Y-44392571D02*
X113686089Y-44678285D01*
X113686089Y-44678285D02*
X113686089Y-45106857D01*
X113686089Y-45106857D02*
X113543232Y-45392571D01*
X113543232Y-45392571D02*
X113400375Y-45535428D01*
X113400375Y-45535428D02*
X113114660Y-45678285D01*
X113114660Y-45678285D02*
X111971803Y-45678285D01*
X114971803Y-47106857D02*
X114971803Y-44106857D01*
X116400374Y-47106857D02*
X116400374Y-44106857D01*
X116400374Y-44106857D02*
X118114660Y-47106857D01*
X118114660Y-47106857D02*
X118114660Y-44106857D01*
X120114660Y-44106857D02*
X120686088Y-44106857D01*
X120686088Y-44106857D02*
X120971803Y-44249714D01*
X120971803Y-44249714D02*
X121257517Y-44535428D01*
X121257517Y-44535428D02*
X121400374Y-45106857D01*
X121400374Y-45106857D02*
X121400374Y-46106857D01*
X121400374Y-46106857D02*
X121257517Y-46678285D01*
X121257517Y-46678285D02*
X120971803Y-46964000D01*
X120971803Y-46964000D02*
X120686088Y-47106857D01*
X120686088Y-47106857D02*
X120114660Y-47106857D01*
X120114660Y-47106857D02*
X119828946Y-46964000D01*
X119828946Y-46964000D02*
X119543231Y-46678285D01*
X119543231Y-46678285D02*
X119400374Y-46106857D01*
X119400374Y-46106857D02*
X119400374Y-45106857D01*
X119400374Y-45106857D02*
X119543231Y-44535428D01*
X119543231Y-44535428D02*
X119828946Y-44249714D01*
X119828946Y-44249714D02*
X120114660Y-44106857D01*
X122686088Y-45964000D02*
X124971803Y-45964000D01*
X125971803Y-44106857D02*
X126971803Y-47106857D01*
X126971803Y-47106857D02*
X127971803Y-44106857D01*
X128828946Y-44392571D02*
X128971803Y-44249714D01*
X128971803Y-44249714D02*
X129257518Y-44106857D01*
X129257518Y-44106857D02*
X129971803Y-44106857D01*
X129971803Y-44106857D02*
X130257518Y-44249714D01*
X130257518Y-44249714D02*
X130400375Y-44392571D01*
X130400375Y-44392571D02*
X130543232Y-44678285D01*
X130543232Y-44678285D02*
X130543232Y-44964000D01*
X130543232Y-44964000D02*
X130400375Y-45392571D01*
X130400375Y-45392571D02*
X128686089Y-47106857D01*
X128686089Y-47106857D02*
X130543232Y-47106857D01*
D12*
%TO.P,R4,1*%
%TO.N,Net-(J1-Pad4)*%
X80340000Y-100000000D03*
%TO.P,R4,2*%
%TO.N,Net-(A1-D2{slash}GPIO4{slash}SDA)*%
X90500000Y-100000000D03*
%TD*%
%TO.P,R3,1*%
%TO.N,Net-(A1-D2{slash}GPIO4{slash}SDA)*%
X96840000Y-100000000D03*
%TO.P,R3,2*%
%TO.N,GND*%
X107000000Y-100000000D03*
%TD*%
%TO.P,R2,1*%
%TO.N,Net-(J1-Pad3)*%
X80420000Y-95000000D03*
%TO.P,R2,2*%
%TO.N,Net-(A1-D1{slash}GPIO5{slash}SCL)*%
X90580000Y-95000000D03*
%TD*%
D13*
%TO.P,J1,1*%
%TO.N,VIN*%
X65960000Y-95000000D03*
%TO.P,J1,2*%
%TO.N,Net-(A1-GND-Pad29)*%
X68500000Y-95000000D03*
%TO.P,J1,3*%
%TO.N,Net-(J1-Pad3)*%
X71040000Y-95000000D03*
%TO.P,J1,4*%
%TO.N,Net-(J1-Pad4)*%
X73580000Y-95000000D03*
%TD*%
D14*
%TO.P,J2,1*%
%TO.N,Net-(U1-OUTB2)*%
X126500000Y-50000000D03*
%TO.P,J2,2*%
%TO.N,Net-(U1-OUTB1)*%
X123960000Y-50000000D03*
%TD*%
%TO.P,J3,1*%
%TO.N,Net-(U1-12v)*%
X103000000Y-71960000D03*
D15*
%TO.P,J3,2*%
%TO.N,GND*%
X103000000Y-74500000D03*
%TD*%
D12*
%TO.P,R1,1*%
%TO.N,Net-(A1-D1{slash}GPIO5{slash}SCL)*%
X96840000Y-95500000D03*
%TO.P,R1,2*%
%TO.N,GND*%
X107000000Y-95500000D03*
%TD*%
D16*
%TO.P,U1,1,5v_1*%
%TO.N,unconnected-(U1-5v-Pad1)*%
X115300000Y-89480000D03*
%TO.P,U1,2,GND_2*%
%TO.N,GND*%
X115300000Y-84400000D03*
%TO.P,U1,3,12v_3*%
%TO.N,Net-(U1-12v)*%
X115300000Y-79320000D03*
%TO.P,U1,4,ENA_4*%
%TO.N,unconnected-(U1-ENA-Pad4)*%
X112760000Y-74240000D03*
%TO.P,U1,5,INA1_5*%
%TO.N,unconnected-(U1-INA1-Pad5)*%
X112760000Y-71700000D03*
%TO.P,U1,6,INA2_6*%
%TO.N,unconnected-(U1-INA2-Pad6)*%
X112760000Y-69160000D03*
%TO.P,U1,7,INB1_7*%
%TO.N,Net-(A1-D5{slash}GPIO14{slash}SCLK)*%
X112760000Y-66620000D03*
%TO.P,U1,8,INB2_8*%
%TO.N,Net-(A1-D6{slash}GPIO12{slash}MISO)*%
X112760000Y-64080000D03*
%TO.P,U1,9,ENB_9*%
%TO.N,Net-(A1-D7{slash}GPIO13{slash}MOSI{slash}RX2)*%
X112760000Y-61540000D03*
%TO.P,U1,10,OUTA1_10*%
%TO.N,unconnected-(U1-OUTA1-Pad10)*%
X128000000Y-94560000D03*
%TO.P,U1,11,OUTA2_11*%
%TO.N,unconnected-(U1-OUTA2-Pad11)*%
X122920000Y-94560000D03*
%TO.P,U1,12,OUTB1_12*%
%TO.N,Net-(U1-OUTB1)*%
X122920000Y-59000000D03*
%TO.P,U1,13,OUTB2_13*%
%TO.N,Net-(U1-OUTB2)*%
X128000000Y-59000000D03*
%TD*%
D17*
%TO.P,A1,1,3V3_1*%
%TO.N,unconnected-(A1-3V3-Pad1)*%
X94500000Y-44000000D03*
%TO.P,A1,2,GND_2*%
%TO.N,GND*%
X94500000Y-46540000D03*
%TO.P,A1,3,GPIO1/TX0_3*%
%TO.N,unconnected-(A1-GPIO1{slash}TX0-Pad3)*%
X94500000Y-49080000D03*
%TO.P,A1,4,GPIO3/RX0_4*%
%TO.N,unconnected-(A1-GPIO3{slash}RX0-Pad4)*%
X94500000Y-51620000D03*
%TO.P,A1,5,D8/GPIO15/CS/TX2_5*%
%TO.N,unconnected-(A1-D8{slash}GPIO15{slash}CS{slash}TX2-Pad5)*%
X94500000Y-54160000D03*
%TO.P,A1,6,D7/GPIO13/MOSI/RX2_6*%
%TO.N,Net-(A1-D7{slash}GPIO13{slash}MOSI{slash}RX2)*%
X94500000Y-56700000D03*
%TO.P,A1,7,D6/GPIO12/MISO_7*%
%TO.N,Net-(A1-D6{slash}GPIO12{slash}MISO)*%
X94500000Y-59240000D03*
%TO.P,A1,8,D5/GPIO14/SCLK_8*%
%TO.N,Net-(A1-D5{slash}GPIO14{slash}SCLK)*%
X94500000Y-61780000D03*
%TO.P,A1,9,GND_9*%
%TO.N,unconnected-(A1-GND-Pad9)*%
X94500000Y-64320000D03*
%TO.P,A1,10,3V3_10*%
%TO.N,unconnected-(A1-3V3-Pad10)*%
X94500000Y-66860000D03*
%TO.P,A1,11,D4/GPIO2/TX1_11*%
%TO.N,unconnected-(A1-D4{slash}GPIO2{slash}TX1-Pad11)*%
X94500000Y-69400000D03*
%TO.P,A1,12,D3/GPIO0_12*%
%TO.N,unconnected-(A1-D3{slash}GPIO0-Pad12)*%
X94500000Y-71940000D03*
%TO.P,A1,13,D2/GPIO4/SDA_13*%
%TO.N,Net-(A1-D2{slash}GPIO4{slash}SDA)*%
X94500000Y-74480000D03*
%TO.P,A1,14,D1/GPIO5/SCL_14*%
%TO.N,Net-(A1-D1{slash}GPIO5{slash}SCL)*%
X94500000Y-77020000D03*
%TO.P,A1,15,D0/GPIO16/WAKE_15*%
%TO.N,unconnected-(A1-D0{slash}GPIO16{slash}WAKE-Pad15)*%
X94500000Y-79560000D03*
%TO.P,A1,16,ADC0_16*%
%TO.N,unconnected-(A1-ADC0-Pad16)*%
X66560000Y-79560000D03*
%TO.P,A1,17,GND_17*%
%TO.N,unconnected-(A1-GND-Pad17)*%
X66560000Y-77020000D03*
%TO.P,A1,18,VV_18*%
%TO.N,unconnected-(A1-VV-Pad18)*%
X66560000Y-74480000D03*
%TO.P,A1,19,GPIO10/S3_19*%
%TO.N,unconnected-(A1-GPIO10{slash}S3-Pad19)*%
X66560000Y-71940000D03*
%TO.P,A1,20,GPIO9/S2_20*%
%TO.N,unconnected-(A1-GPIO9{slash}S2-Pad20)*%
X66560000Y-69400000D03*
%TO.P,A1,21,MOSI/S1_21*%
%TO.N,unconnected-(A1-MOSI{slash}S1-Pad21)*%
X66560000Y-66860000D03*
%TO.P,A1,22,CS_22*%
%TO.N,unconnected-(A1-CS-Pad22)*%
X66560000Y-64320000D03*
%TO.P,A1,23,MISO/S0_23*%
%TO.N,unconnected-(A1-MISO{slash}S0-Pad23)*%
X66560000Y-61780000D03*
%TO.P,A1,24,SCLK/SK_24*%
%TO.N,unconnected-(A1-SCLK{slash}SK-Pad24)*%
X66560000Y-59240000D03*
%TO.P,A1,25,GND_25*%
%TO.N,unconnected-(A1-GND-Pad25)*%
X66560000Y-56700000D03*
%TO.P,A1,26,3V3_26*%
%TO.N,+3.3V*%
X66560000Y-54160000D03*
%TO.P,A1,27,EN_27*%
%TO.N,unconnected-(A1-EN-Pad27)*%
X66560000Y-51620000D03*
%TO.P,A1,28,RST_28*%
%TO.N,unconnected-(A1-RST-Pad28)*%
X66560000Y-49080000D03*
%TO.P,A1,29,GND_29*%
%TO.N,Net-(A1-GND-Pad29)*%
X66560000Y-46540000D03*
%TO.P,A1,30,VIN_30*%
%TO.N,VIN*%
X66560000Y-44000000D03*
%TD*%
%TO.N,Net-(J1-Pad3)*%
D18*
X80420000Y-93080000D02*
X80420000Y-95000000D01*
X80500000Y-93000000D02*
X80420000Y-93080000D01*
X80000000Y-92500000D02*
X80500000Y-93000000D01*
X71540000Y-92500000D02*
X80000000Y-92500000D01*
X71040000Y-95000000D02*
X71040000Y-93000000D01*
X71040000Y-93000000D02*
X71540000Y-92500000D01*
%TO.N,Net-(A1-D2{slash}GPIO4{slash}SDA)*%
X99500000Y-78562284D02*
X99500000Y-91500000D01*
X94500000Y-74480000D02*
X95417716Y-74480000D01*
X95417716Y-74480000D02*
X99500000Y-78562284D01*
X102000000Y-94000000D02*
X99500000Y-91500000D01*
X102000000Y-100000000D02*
X102000000Y-94000000D01*
X96840000Y-100000000D02*
X102000000Y-100000000D01*
X90500000Y-100000000D02*
X96840000Y-100000000D01*
%TO.N,Net-(A1-D1{slash}GPIO5{slash}SCL)*%
X91080000Y-95500000D02*
X90580000Y-95000000D01*
X96840000Y-95500000D02*
X91080000Y-95500000D01*
X90580000Y-79140000D02*
X92700000Y-77020000D01*
X92700000Y-77020000D02*
X94500000Y-77020000D01*
X90580000Y-95000000D02*
X90580000Y-79140000D01*
%TO.N,Net-(J1-Pad4)*%
X75000000Y-100000000D02*
X80340000Y-100000000D01*
X73580000Y-98580000D02*
X75000000Y-100000000D01*
X73580000Y-95000000D02*
X73580000Y-98580000D01*
%TO.N,GND*%
X107000000Y-84400000D02*
X115300000Y-84400000D01*
X107000000Y-95500000D02*
X107000000Y-84400000D01*
X107000000Y-100000000D02*
X107000000Y-95500000D01*
%TO.N,VIN*%
X66560000Y-44000000D02*
X62500000Y-44000000D01*
X62500000Y-44000000D02*
X62500000Y-95000000D01*
X62500000Y-95000000D02*
X65960000Y-95000000D01*
%TO.N,GND*%
X101540000Y-46540000D02*
X94500000Y-46540000D01*
X103000000Y-84000000D02*
X103400000Y-84400000D01*
X119900000Y-84400000D02*
X120000000Y-84500000D01*
X103000000Y-74500000D02*
X103000000Y-84000000D01*
X120000000Y-84500000D02*
X120000000Y-53500000D01*
X104500000Y-49500000D02*
X101540000Y-46540000D01*
X115300000Y-84400000D02*
X119900000Y-84400000D01*
X120000000Y-53500000D02*
X116000000Y-49500000D01*
X116000000Y-49500000D02*
X104500000Y-49500000D01*
X103400000Y-84400000D02*
X107000000Y-84400000D01*
%TO.N,Net-(U1-12v)*%
X107500000Y-79320000D02*
X115300000Y-79320000D01*
X103000000Y-71960000D02*
X106960000Y-71960000D01*
X106960000Y-71960000D02*
X107500000Y-72500000D01*
X107500000Y-72500000D02*
X107500000Y-79320000D01*
%TO.N,Net-(A1-D5{slash}GPIO14{slash}SCLK)*%
X112760000Y-66620000D02*
X111120000Y-66620000D01*
X111120000Y-66620000D02*
X106280000Y-61780000D01*
X106280000Y-61780000D02*
X94500000Y-61780000D01*
%TO.N,Net-(A1-D6{slash}GPIO12{slash}MISO)*%
X106740000Y-59240000D02*
X94500000Y-59240000D01*
X111580000Y-64080000D02*
X106740000Y-59240000D01*
X112760000Y-64080000D02*
X111580000Y-64080000D01*
%TO.N,Net-(A1-D7{slash}GPIO13{slash}MOSI{slash}RX2)*%
X112760000Y-61540000D02*
X107920000Y-56700000D01*
X107920000Y-56700000D02*
X94500000Y-56700000D01*
%TO.N,Net-(U1-OUTB1)*%
X123960000Y-57960000D02*
X122920000Y-59000000D01*
X123960000Y-50000000D02*
X123960000Y-57960000D01*
%TO.N,Net-(U1-OUTB2)*%
X126500000Y-50000000D02*
X126500000Y-57500000D01*
X126500000Y-57500000D02*
X128000000Y-59000000D01*
%TO.N,Net-(A1-GND-Pad29)*%
X68500000Y-95000000D02*
X68500000Y-87000000D01*
X71500000Y-84000000D02*
X71500000Y-46540000D01*
X68500000Y-87000000D02*
X71500000Y-84000000D01*
X71500000Y-46540000D02*
X66560000Y-46540000D01*
%TD*%
M02*
