M48
; DRILL file KiCad 10.0.3 date 2026-07-16T13:22:57
; FORMAT={-:-/ absolute / metric / decimal}
; #@! TF.CreationDate,2026-07-16T13:22:57-03:00
; #@! TF.GenerationSoftware,Kicad,Pcbnew,10.0.3
; #@! TF.FileFunction,Plated,1,2,PTH
FMAT,2
METRIC
; #@! TA.AperFunction,Plated,PTH,ComponentDrill
T1C0.800
; #@! TA.AperFunction,Plated,PTH,ViaDrill
T2C1.000
; #@! TA.AperFunction,Plated,PTH,ComponentDrill
T3C1.000
%
G90
G05
T1
X81.825Y-95.105
X91.985Y-95.105
X97.08Y-95.28
X107.24Y-95.28
T2
X104.35Y-63.03
X104.53Y-60.33
X104.59Y-57.66
X105.45Y-87.65
X109.61Y-87.83
T3
X65.96Y-95.0
X66.75Y-44.96
X66.75Y-47.5
X66.75Y-50.04
X66.75Y-52.58
X66.75Y-55.12
X66.75Y-57.66
X66.75Y-60.2
X66.75Y-62.74
X66.75Y-65.28
X66.75Y-67.82
X66.75Y-70.36
X66.75Y-72.9
X66.75Y-75.44
X66.75Y-77.98
X66.75Y-80.52
X68.5Y-95.0
X71.04Y-95.0
X73.58Y-95.0
X94.69Y-44.96
X94.69Y-47.5
X94.69Y-50.04
X94.69Y-52.58
X94.69Y-55.12
X94.69Y-57.66
X94.69Y-60.2
X94.69Y-62.74
X94.69Y-65.28
X94.69Y-67.82
X94.69Y-70.36
X94.69Y-72.9
X94.69Y-75.44
X94.69Y-77.98
X94.69Y-80.52
X102.25Y-47.32
X104.79Y-47.32
X105.56Y-91.55
X108.1Y-91.55
M30
