M48
; DRILL file KiCad 10.0.3 date 2026-06-19T12:05:04
; FORMAT={-:-/ absolute / metric / decimal}
; #@! TF.CreationDate,2026-06-19T12:05:04-03:00
; #@! TF.GenerationSoftware,Kicad,Pcbnew,10.0.3
; #@! TF.FileFunction,Plated,1,2,PTH
FMAT,2
METRIC
; #@! TA.AperFunction,Plated,PTH,ComponentDrill
T1C0.762
; #@! TA.AperFunction,Plated,PTH,ComponentDrill
T2C0.800
; #@! TA.AperFunction,Plated,PTH,ComponentDrill
T3C1.000
%
G90
G05
T1
X112.76Y-61.54
X112.76Y-64.08
X112.76Y-66.62
X112.76Y-69.16
X112.76Y-71.7
X112.76Y-74.24
X115.3Y-79.32
X115.3Y-84.4
X115.3Y-89.48
X122.92Y-59.0
X122.92Y-94.56
X128.0Y-59.0
X128.0Y-94.56
T2
X80.34Y-100.0
X80.42Y-95.0
X90.5Y-100.0
X90.58Y-95.0
X96.84Y-95.5
X96.84Y-100.0
X107.0Y-95.5
X107.0Y-100.0
T3
X65.96Y-95.0
X66.56Y-44.0
X66.56Y-46.54
X66.56Y-49.08
X66.56Y-51.62
X66.56Y-54.16
X66.56Y-56.7
X66.56Y-59.24
X66.56Y-61.78
X66.56Y-64.32
X66.56Y-66.86
X66.56Y-69.4
X66.56Y-71.94
X66.56Y-74.48
X66.56Y-77.02
X66.56Y-79.56
X68.5Y-95.0
X71.04Y-95.0
X73.58Y-95.0
X94.5Y-44.0
X94.5Y-46.54
X94.5Y-49.08
X94.5Y-51.62
X94.5Y-54.16
X94.5Y-56.7
X94.5Y-59.24
X94.5Y-61.78
X94.5Y-64.32
X94.5Y-66.86
X94.5Y-69.4
X94.5Y-71.94
X94.5Y-74.48
X94.5Y-77.02
X94.5Y-79.56
X103.0Y-71.96
X103.0Y-74.5
X123.96Y-50.0
X126.5Y-50.0
M30
