%TF.GenerationSoftware,KiCad,Pcbnew,10.0.3*%
%TF.CreationDate,2026-07-16T13:21:58-03:00*%
%TF.ProjectId,pcb,7063622e-6b69-4636-9164-5f7063625858,rev?*%
%TF.SameCoordinates,Original*%
%TF.FileFunction,Copper,L2,Bot*%
%TF.FilePolarity,Positive*%
%FSLAX46Y46*%
G04 Gerber Fmt 4.6, Leading zero omitted, Abs format (unit mm)*
G04 Created by KiCad (PCBNEW 10.0.3) date 2026-07-16 13:21:58*
%MOMM*%
%LPD*%
G01*
G04 APERTURE LIST*
%ADD10C,0.750000*%
%TA.AperFunction,NonConductor*%
%ADD11C,0.750000*%
%TD*%
%TA.AperFunction,ComponentPad*%
%ADD12C,2.400000*%
%TD*%
%TA.AperFunction,ComponentPad*%
%ADD13C,1.600000*%
%TD*%
%TA.AperFunction,ComponentPad*%
%ADD14O,2.000000X3.000000*%
%TD*%
%TA.AperFunction,ComponentPad*%
%ADD15C,2.500000*%
%TD*%
%TA.AperFunction,ComponentPad*%
%ADD16O,3.400000X2.000000*%
%TD*%
%TA.AperFunction,ViaPad*%
%ADD17C,2.500000*%
%TD*%
%TA.AperFunction,Conductor*%
%ADD18C,1.500000*%
%TD*%
G04 APERTURE END LIST*
D10*
D11*
X109573285Y-55999135D02*
X109716142Y-55713421D01*
X109716142Y-55713421D02*
X109716142Y-55284849D01*
X109716142Y-55284849D02*
X109573285Y-54856278D01*
X109573285Y-54856278D02*
X109287571Y-54570563D01*
X109287571Y-54570563D02*
X109001857Y-54427706D01*
X109001857Y-54427706D02*
X108430428Y-54284849D01*
X108430428Y-54284849D02*
X108001857Y-54284849D01*
X108001857Y-54284849D02*
X107430428Y-54427706D01*
X107430428Y-54427706D02*
X107144714Y-54570563D01*
X107144714Y-54570563D02*
X106859000Y-54856278D01*
X106859000Y-54856278D02*
X106716142Y-55284849D01*
X106716142Y-55284849D02*
X106716142Y-55570563D01*
X106716142Y-55570563D02*
X106859000Y-55999135D01*
X106859000Y-55999135D02*
X107001857Y-56141992D01*
X107001857Y-56141992D02*
X108001857Y-56141992D01*
X108001857Y-56141992D02*
X108001857Y-55570563D01*
X106716142Y-57427706D02*
X109716142Y-57427706D01*
X106716142Y-60570563D02*
X108144714Y-59570563D01*
X106716142Y-58856277D02*
X109716142Y-58856277D01*
X109716142Y-58856277D02*
X109716142Y-59999134D01*
X109716142Y-59999134D02*
X109573285Y-60284849D01*
X109573285Y-60284849D02*
X109430428Y-60427706D01*
X109430428Y-60427706D02*
X109144714Y-60570563D01*
X109144714Y-60570563D02*
X108716142Y-60570563D01*
X108716142Y-60570563D02*
X108430428Y-60427706D01*
X108430428Y-60427706D02*
X108287571Y-60284849D01*
X108287571Y-60284849D02*
X108144714Y-59999134D01*
X108144714Y-59999134D02*
X108144714Y-58856277D01*
X106716142Y-61856277D02*
X109716142Y-61856277D01*
X106716142Y-63284848D02*
X109716142Y-63284848D01*
X109716142Y-63284848D02*
X106716142Y-64999134D01*
X106716142Y-64999134D02*
X109716142Y-64999134D01*
X109716142Y-66999134D02*
X109716142Y-67570562D01*
X109716142Y-67570562D02*
X109573285Y-67856277D01*
X109573285Y-67856277D02*
X109287571Y-68141991D01*
X109287571Y-68141991D02*
X108716142Y-68284848D01*
X108716142Y-68284848D02*
X107716142Y-68284848D01*
X107716142Y-68284848D02*
X107144714Y-68141991D01*
X107144714Y-68141991D02*
X106859000Y-67856277D01*
X106859000Y-67856277D02*
X106716142Y-67570562D01*
X106716142Y-67570562D02*
X106716142Y-66999134D01*
X106716142Y-66999134D02*
X106859000Y-66713420D01*
X106859000Y-66713420D02*
X107144714Y-66427705D01*
X107144714Y-66427705D02*
X107716142Y-66284848D01*
X107716142Y-66284848D02*
X108716142Y-66284848D01*
X108716142Y-66284848D02*
X109287571Y-66427705D01*
X109287571Y-66427705D02*
X109573285Y-66713420D01*
X109573285Y-66713420D02*
X109716142Y-66999134D01*
X107859000Y-69570562D02*
X107859000Y-71856277D01*
X109716142Y-72856277D02*
X106716142Y-73856277D01*
X106716142Y-73856277D02*
X109716142Y-74856277D01*
X109716142Y-75570563D02*
X109716142Y-77427706D01*
X109716142Y-77427706D02*
X108573285Y-76427706D01*
X108573285Y-76427706D02*
X108573285Y-76856277D01*
X108573285Y-76856277D02*
X108430428Y-77141992D01*
X108430428Y-77141992D02*
X108287571Y-77284849D01*
X108287571Y-77284849D02*
X108001857Y-77427706D01*
X108001857Y-77427706D02*
X107287571Y-77427706D01*
X107287571Y-77427706D02*
X107001857Y-77284849D01*
X107001857Y-77284849D02*
X106859000Y-77141992D01*
X106859000Y-77141992D02*
X106716142Y-76856277D01*
X106716142Y-76856277D02*
X106716142Y-75999134D01*
X106716142Y-75999134D02*
X106859000Y-75713420D01*
X106859000Y-75713420D02*
X107001857Y-75570563D01*
D12*
%TO.P,J2,2*%
%TO.N,Net-(U1-OUTB1)*%
X108100000Y-91550000D03*
%TO.P,J2,1*%
%TO.N,Net-(U1-OUTB2)*%
X105560000Y-91550000D03*
%TD*%
D13*
%TO.P,R2.2k1,1*%
%TO.N,Net-(A1-D2{slash}GPIO4{slash}SDA)*%
X81825000Y-95105000D03*
%TO.P,R2.2k1,2*%
%TO.N,3.3V*%
X91985000Y-95105000D03*
%TD*%
D14*
%TO.P,J1,1*%
%TO.N,VIN*%
X65960000Y-95000000D03*
%TO.P,J1,2*%
%TO.N,Net-(A1-GND-Pad29)*%
X68500000Y-95000000D03*
%TO.P,J1,3*%
%TO.N,Net-(A1-D1{slash}GPIO5{slash}SCL)*%
X71040000Y-95000000D03*
%TO.P,J1,4*%
%TO.N,Net-(A1-D2{slash}GPIO4{slash}SDA)*%
X73580000Y-95000000D03*
%TD*%
D12*
%TO.P,J3,1*%
%TO.N,12V*%
X102250000Y-47320000D03*
D15*
%TO.P,J3,2*%
%TO.N,GND*%
X104790000Y-47320000D03*
%TD*%
D13*
%TO.P,R2.2k2,1*%
%TO.N,Net-(A1-D1{slash}GPIO5{slash}SCL)*%
X107240000Y-95280000D03*
%TO.P,R2.2k2,2*%
%TO.N,3.3V*%
X97080000Y-95280000D03*
%TD*%
D16*
%TO.P,A1,1,3V3_1*%
%TO.N,unconnected-(A1-3V3-Pad1)*%
X94690000Y-44960000D03*
%TO.P,A1,2,GND_2*%
%TO.N,GND*%
X94690000Y-47500000D03*
%TO.P,A1,3,GPIO1/TX0_3*%
%TO.N,unconnected-(A1-GPIO1{slash}TX0-Pad3)*%
X94690000Y-50040000D03*
%TO.P,A1,4,GPIO3/RX0_4*%
%TO.N,unconnected-(A1-GPIO3{slash}RX0-Pad4)*%
X94690000Y-52580000D03*
%TO.P,A1,5,D8/GPIO15/CS/TX2_5*%
%TO.N,unconnected-(A1-D8{slash}GPIO15{slash}CS{slash}TX2-Pad5)*%
X94690000Y-55120000D03*
%TO.P,A1,6,D7/GPIO13/MOSI/RX2_6*%
%TO.N,Net-(A1-D7{slash}GPIO13{slash}MOSI{slash}RX2)*%
X94690000Y-57660000D03*
%TO.P,A1,7,D6/GPIO12/MISO_7*%
%TO.N,Net-(A1-D6{slash}GPIO12{slash}MISO)*%
X94690000Y-60200000D03*
%TO.P,A1,8,D5/GPIO14/SCLK_8*%
%TO.N,Net-(A1-D5{slash}GPIO14{slash}SCLK)*%
X94690000Y-62740000D03*
%TO.P,A1,9,GND_9*%
%TO.N,unconnected-(A1-GND-Pad9)*%
X94690000Y-65280000D03*
%TO.P,A1,10,3V3_10*%
%TO.N,3.3V*%
X94690000Y-67820000D03*
%TO.P,A1,11,D4/GPIO2/TX1_11*%
%TO.N,unconnected-(A1-D4{slash}GPIO2{slash}TX1-Pad11)*%
X94690000Y-70360000D03*
%TO.P,A1,12,D3/GPIO0_12*%
%TO.N,unconnected-(A1-D3{slash}GPIO0-Pad12)*%
X94690000Y-72900000D03*
%TO.P,A1,13,D2/GPIO4/SDA_13*%
%TO.N,Net-(A1-D2{slash}GPIO4{slash}SDA)*%
X94690000Y-75440000D03*
%TO.P,A1,14,D1/GPIO5/SCL_14*%
%TO.N,Net-(A1-D1{slash}GPIO5{slash}SCL)*%
X94690000Y-77980000D03*
%TO.P,A1,15,D0/GPIO16/WAKE_15*%
%TO.N,unconnected-(A1-D0{slash}GPIO16{slash}WAKE-Pad15)*%
X94690000Y-80520000D03*
%TO.P,A1,16,ADC0_16*%
%TO.N,unconnected-(A1-ADC0-Pad16)*%
X66750000Y-80520000D03*
%TO.P,A1,17,GND_17*%
%TO.N,unconnected-(A1-GND-Pad17)*%
X66750000Y-77980000D03*
%TO.P,A1,18,VV_18*%
%TO.N,unconnected-(A1-VV-Pad18)*%
X66750000Y-75440000D03*
%TO.P,A1,19,GPIO10/S3_19*%
%TO.N,unconnected-(A1-GPIO10{slash}S3-Pad19)*%
X66750000Y-72900000D03*
%TO.P,A1,20,GPIO9/S2_20*%
%TO.N,unconnected-(A1-GPIO9{slash}S2-Pad20)*%
X66750000Y-70360000D03*
%TO.P,A1,21,MOSI/S1_21*%
%TO.N,unconnected-(A1-MOSI{slash}S1-Pad21)*%
X66750000Y-67820000D03*
%TO.P,A1,22,CS_22*%
%TO.N,unconnected-(A1-CS-Pad22)*%
X66750000Y-65280000D03*
%TO.P,A1,23,MISO/S0_23*%
%TO.N,unconnected-(A1-MISO{slash}S0-Pad23)*%
X66750000Y-62740000D03*
%TO.P,A1,24,SCLK/SK_24*%
%TO.N,unconnected-(A1-SCLK{slash}SK-Pad24)*%
X66750000Y-60200000D03*
%TO.P,A1,25,GND_25*%
%TO.N,unconnected-(A1-GND-Pad25)*%
X66750000Y-57660000D03*
%TO.P,A1,26,3V3_26*%
%TO.N,unconnected-(A1-3V3-Pad26)*%
X66750000Y-55120000D03*
%TO.P,A1,27,EN_27*%
%TO.N,unconnected-(A1-EN-Pad27)*%
X66750000Y-52580000D03*
%TO.P,A1,28,RST_28*%
%TO.N,unconnected-(A1-RST-Pad28)*%
X66750000Y-50040000D03*
%TO.P,A1,29,GND_29*%
%TO.N,Net-(A1-GND-Pad29)*%
X66750000Y-47500000D03*
%TO.P,A1,30,VIN_30*%
%TO.N,VIN*%
X66750000Y-44960000D03*
%TD*%
D17*
%TO.N,Net-(U1-OUTB2)*%
X105450000Y-87650000D03*
%TO.N,Net-(U1-OUTB1)*%
X109610000Y-87830000D03*
%TO.N,Net-(A1-D5{slash}GPIO14{slash}SCLK)*%
X104350000Y-63030000D03*
%TO.N,Net-(A1-D6{slash}GPIO12{slash}MISO)*%
X104530000Y-60330000D03*
%TO.N,Net-(A1-D7{slash}GPIO13{slash}MOSI{slash}RX2)*%
X104590000Y-57660000D03*
%TD*%
%TO.N,GND*%
D18*
X95975875Y-47164124D02*
X97296207Y-45843792D01*
X104138883Y-44901117D02*
X104165000Y-44927234D01*
X95165000Y-47500000D02*
X94690000Y-47500000D01*
X104790000Y-46436117D02*
X104790000Y-47320000D01*
X101143963Y-44250000D02*
X102566947Y-44250000D01*
X104138883Y-44901117D02*
G75*
G03*
X102566947Y-44249951I-1571983J-1571883D01*
G01*
X104790000Y-46436117D02*
G75*
G03*
X104165012Y-44927222I-2133900J17D01*
G01*
X95975875Y-47164124D02*
G75*
G02*
X95165000Y-47499985I-810875J810924D01*
G01*
X101143963Y-44250000D02*
G75*
G03*
X97296236Y-45843821I37J-5441500D01*
G01*
%TO.N,VIN*%
X63725000Y-46185000D02*
X64313603Y-45596396D01*
X64348540Y-95000000D02*
X65960000Y-95000000D01*
X65850000Y-44960000D02*
X66750000Y-44960000D01*
X62500000Y-49142411D02*
X62500000Y-93151459D01*
X62500000Y-49142411D02*
G75*
G02*
X63724997Y-46184997I4182400J11D01*
G01*
X65850000Y-44960000D02*
G75*
G03*
X64313602Y-45596395I0J-2172800D01*
G01*
X62500000Y-93151459D02*
G75*
G03*
X63041413Y-94458587I1848500J-41D01*
G01*
X64348540Y-95000000D02*
G75*
G02*
X63041413Y-94458587I-40J1848500D01*
G01*
%TO.N,Net-(A1-GND-Pad29)*%
X68500000Y-93636396D02*
X68500000Y-95000000D01*
X69400000Y-91463603D02*
X69400000Y-50457193D01*
X67208858Y-47500000D02*
X66750000Y-47500000D01*
X68533858Y-48366142D02*
X67992177Y-47824461D01*
X67992177Y-47824461D02*
G75*
G03*
X67208858Y-47500035I-783277J-783339D01*
G01*
X68533858Y-48366142D02*
G75*
G02*
X69400003Y-50457193I-2091058J-2091058D01*
G01*
X69400000Y-91463603D02*
G75*
G02*
X68949999Y-92549999I-1536400J3D01*
G01*
X68500000Y-93636396D02*
G75*
G02*
X68950001Y-92550001I1536400J-4D01*
G01*
%TO.N,Net-(U1-OUTB2)*%
X105450000Y-87650000D02*
X105505000Y-87705000D01*
X105560000Y-87837782D02*
X105560000Y-91550000D01*
X105505000Y-87705000D02*
G75*
G02*
X105560008Y-87837782I-132800J-132800D01*
G01*
%TO.N,Net-(U1-OUTB1)*%
X108100000Y-88143623D02*
X108100000Y-91550000D01*
X108413622Y-87830000D02*
X109610000Y-87830000D01*
X108191858Y-87921858D02*
G75*
G03*
X108100009Y-88143623I221742J-221742D01*
G01*
X108191858Y-87921858D02*
G75*
G02*
X108413622Y-87830009I221742J-221742D01*
G01*
%TO.N,Net-(A1-D5{slash}GPIO14{slash}SCLK)*%
X104205000Y-62885000D02*
X104350000Y-63030000D01*
X103854939Y-62740000D02*
X94690000Y-62740000D01*
X103854939Y-62740000D02*
G75*
G02*
X104204989Y-62885011I-39J-495100D01*
G01*
%TO.N,Net-(A1-D6{slash}GPIO12{slash}MISO)*%
X104308076Y-60200000D02*
X94690000Y-60200000D01*
X104530000Y-60330000D02*
X104465000Y-60265000D01*
X104308076Y-60200000D02*
G75*
G02*
X104465007Y-60264993I24J-221900D01*
G01*
%TO.N,Net-(A1-D7{slash}GPIO13{slash}MOSI{slash}RX2)*%
X104590000Y-57660000D02*
X94690000Y-57660000D01*
%TO.N,3.3V*%
X92040000Y-46411040D02*
X92040000Y-66573812D01*
X97080000Y-91304802D02*
X97080000Y-95156256D01*
X94683190Y-67820000D02*
X94237951Y-67820000D01*
X93491040Y-44960000D02*
X94690000Y-44960000D01*
X95034143Y-67820000D02*
X94804714Y-67820000D01*
X102633589Y-87656410D02*
X102950000Y-87340000D01*
X104320000Y-81253963D02*
X104320000Y-84032527D01*
X102726207Y-77406207D02*
X98212469Y-72892469D01*
X99674802Y-88710000D02*
X100090000Y-88710000D01*
X93407711Y-67820000D02*
X93286187Y-67820000D01*
X97340000Y-70777193D02*
X97340000Y-70786142D01*
X94237951Y-67820000D02*
X93792712Y-67820000D01*
X96781256Y-95105000D02*
X91985000Y-95105000D01*
X93650759Y-67820000D02*
X93407711Y-67820000D01*
X95034143Y-67820000D02*
X95148858Y-67820000D01*
X93792712Y-67820000D02*
X93650759Y-67820000D01*
X94683190Y-67820000D02*
X94804714Y-67820000D01*
X95932177Y-68144461D02*
X96473858Y-68686142D01*
X96781256Y-95105000D02*
G75*
G02*
X96992513Y-95192487I44J-298700D01*
G01*
X97840000Y-89470000D02*
G75*
G03*
X97080001Y-91304802I1834800J-1834800D01*
G01*
X104320000Y-84032527D02*
G75*
G02*
X102949992Y-87339992I-4677500J27D01*
G01*
X92465000Y-45385000D02*
G75*
G03*
X92040017Y-46411040I1026000J-1026000D01*
G01*
X92405000Y-67455000D02*
G75*
G02*
X92039995Y-66573812I881200J881200D01*
G01*
X104320000Y-81253963D02*
G75*
G03*
X102726199Y-77406215I-5441600J-37D01*
G01*
X92465000Y-45385000D02*
G75*
G02*
X93491040Y-44960017I1026000J-1026000D01*
G01*
X95932177Y-68144461D02*
G75*
G03*
X95148858Y-67820035I-783277J-783339D01*
G01*
X97340000Y-70786142D02*
G75*
G03*
X98212489Y-72892449I2978800J42D01*
G01*
X97840000Y-89470000D02*
G75*
G02*
X99674802Y-88710001I1834800J-1834800D01*
G01*
X96992500Y-95192500D02*
G75*
G03*
X97079895Y-95156256I36200J36200D01*
G01*
X97340000Y-70777193D02*
G75*
G03*
X96473856Y-68686144I-2957200J-7D01*
G01*
X102633589Y-87656410D02*
G75*
G02*
X100090000Y-88709993I-2543589J2543610D01*
G01*
X92405000Y-67455000D02*
G75*
G03*
X93286187Y-67820005I881200J881200D01*
G01*
%TO.N,Net-(A1-D1{slash}GPIO5{slash}SCL)*%
X106505944Y-98740000D02*
X74010365Y-98740000D01*
X71040000Y-94000000D02*
X71040000Y-96000000D01*
X107240000Y-98005944D02*
X107240000Y-95280000D01*
X71747106Y-92292893D02*
X84466207Y-79573792D01*
X71747106Y-97707106D02*
X71910000Y-97870000D01*
X88313963Y-77980000D02*
X94690000Y-77980000D01*
X71040000Y-96000000D02*
G75*
G03*
X71747109Y-97707103I2414200J0D01*
G01*
X88313963Y-77980000D02*
G75*
G03*
X84466236Y-79573821I37J-5441500D01*
G01*
X107025000Y-98525000D02*
G75*
G02*
X106505944Y-98740018I-519100J519100D01*
G01*
X71910000Y-97870000D02*
G75*
G03*
X74010365Y-98740014I2100400J2100400D01*
G01*
X107025000Y-98525000D02*
G75*
G03*
X107240018Y-98005944I-519100J519100D01*
G01*
X71747106Y-92292893D02*
G75*
G03*
X71039995Y-94000000I1707094J-1707107D01*
G01*
%TO.N,Net-(A1-D2{slash}GPIO4{slash}SDA)*%
X88903963Y-84730000D02*
X95901522Y-84730000D01*
X76823502Y-93100000D02*
X76880000Y-93100000D01*
X96610000Y-75440000D02*
X94690000Y-75440000D01*
X81825000Y-95105000D02*
X73759246Y-95105000D01*
X100340000Y-81776981D02*
X100340000Y-81423963D01*
X98746195Y-77576195D02*
X96610000Y-75440000D01*
X73632500Y-94947500D02*
X74530000Y-94050000D01*
X99040000Y-83430000D02*
X100090391Y-82379608D01*
X79269949Y-92110050D02*
X85056207Y-86323792D01*
X100340000Y-81423963D02*
G75*
G03*
X98746187Y-77576203I-5441600J-37D01*
G01*
X76880000Y-93100000D02*
G75*
G03*
X79269950Y-92110051I0J3379900D01*
G01*
X73632500Y-95052500D02*
G75*
G02*
X73632500Y-94947500I52500J52500D01*
G01*
X85056207Y-86323792D02*
G75*
G02*
X88903963Y-84729959I3847793J-3847708D01*
G01*
X73759246Y-95105000D02*
G75*
G02*
X73632466Y-95052534I-46J179300D01*
G01*
X95901522Y-84730000D02*
G75*
G03*
X99039993Y-83429993I-22J4438500D01*
G01*
X74530000Y-94050000D02*
G75*
G02*
X76823502Y-93100001I2293500J-2293500D01*
G01*
X100090391Y-82379608D02*
G75*
G03*
X100340004Y-81776981I-602591J602608D01*
G01*
%TD*%
M02*
