ISO-10303-21;
HEADER;
/* Generated by software containing ST-Developer
 * from STEP Tools, Inc. (www.steptools.com) 
 */

FILE_DESCRIPTION(
/* description */ (''),
/* implementation_level */ '2;1');

FILE_NAME(
/* name */ 'caixa.step',
/* time_stamp */ '2026-06-24T21:04:35-03:00',
/* author */ (''),
/* organization */ (''),
/* preprocessor_version */ 'ST-DEVELOPER v20.1',
/* originating_system */ 'Autodesk Translation Framework v15.8.0.0',
/* authorisation */ '');

FILE_SCHEMA (('AUTOMOTIVE_DESIGN { 1 0 10303 214 3 1 1 }'));
ENDSEC;

DATA;
#10=MECHANICAL_DESIGN_GEOMETRIC_PRESENTATION_REPRESENTATION('',(#13),#741);
#11=SHAPE_REPRESENTATION_RELATIONSHIP('SRR','None',#748,#12);
#12=ADVANCED_BREP_SHAPE_REPRESENTATION('',(#14),#740);
#13=STYLED_ITEM('',(#758),#14);
#14=MANIFOLD_SOLID_BREP('Corpo1',#437);
#15=FACE_BOUND('',#75,.T.);
#16=FACE_BOUND('',#86,.T.);
#17=FACE_BOUND('',#89,.T.);
#18=CYLINDRICAL_SURFACE('',#460,4.);
#19=CYLINDRICAL_SURFACE('',#463,4.);
#20=CYLINDRICAL_SURFACE('',#467,4.);
#21=CYLINDRICAL_SURFACE('',#470,4.00000000000001);
#22=CYLINDRICAL_SURFACE('',#473,7.);
#23=CYLINDRICAL_SURFACE('',#477,7.00000000000001);
#24=CYLINDRICAL_SURFACE('',#481,7.);
#25=CYLINDRICAL_SURFACE('',#485,7.);
#26=CIRCLE('',#456,4.00000000000001);
#27=CIRCLE('',#457,4.);
#28=CIRCLE('',#458,4.);
#29=CIRCLE('',#459,4.);
#30=CIRCLE('',#461,4.);
#31=CIRCLE('',#464,4.);
#32=CIRCLE('',#468,4.);
#33=CIRCLE('',#471,4.00000000000001);
#34=CIRCLE('',#474,7.);
#35=CIRCLE('',#475,7.);
#36=CIRCLE('',#478,7.00000000000001);
#37=CIRCLE('',#479,7.00000000000001);
#38=CIRCLE('',#482,7.);
#39=CIRCLE('',#483,7.);
#40=CIRCLE('',#486,7.);
#41=CIRCLE('',#487,7.);
#42=FACE_OUTER_BOUND('',#65,.T.);
#43=FACE_OUTER_BOUND('',#66,.T.);
#44=FACE_OUTER_BOUND('',#67,.T.);
#45=FACE_OUTER_BOUND('',#68,.T.);
#46=FACE_OUTER_BOUND('',#69,.T.);
#47=FACE_OUTER_BOUND('',#70,.T.);
#48=FACE_OUTER_BOUND('',#71,.T.);
#49=FACE_OUTER_BOUND('',#72,.T.);
#50=FACE_OUTER_BOUND('',#73,.T.);
#51=FACE_OUTER_BOUND('',#74,.T.);
#52=FACE_OUTER_BOUND('',#76,.T.);
#53=FACE_OUTER_BOUND('',#77,.T.);
#54=FACE_OUTER_BOUND('',#78,.T.);
#55=FACE_OUTER_BOUND('',#79,.T.);
#56=FACE_OUTER_BOUND('',#80,.T.);
#57=FACE_OUTER_BOUND('',#81,.T.);
#58=FACE_OUTER_BOUND('',#82,.T.);
#59=FACE_OUTER_BOUND('',#83,.T.);
#60=FACE_OUTER_BOUND('',#84,.T.);
#61=FACE_OUTER_BOUND('',#85,.T.);
#62=FACE_OUTER_BOUND('',#87,.T.);
#63=FACE_OUTER_BOUND('',#88,.T.);
#64=FACE_OUTER_BOUND('',#90,.T.);
#65=EDGE_LOOP('',(#279,#280,#281,#282));
#66=EDGE_LOOP('',(#283,#284,#285,#286));
#67=EDGE_LOOP('',(#287,#288,#289,#290));
#68=EDGE_LOOP('',(#291,#292,#293,#294));
#69=EDGE_LOOP('',(#295,#296,#297,#298,#299,#300,#301,#302));
#70=EDGE_LOOP('',(#303,#304,#305,#306));
#71=EDGE_LOOP('',(#307,#308,#309,#310));
#72=EDGE_LOOP('',(#311,#312,#313,#314));
#73=EDGE_LOOP('',(#315,#316,#317,#318));
#74=EDGE_LOOP('',(#319,#320,#321,#322));
#75=EDGE_LOOP('',(#323,#324,#325,#326));
#76=EDGE_LOOP('',(#327,#328,#329,#330));
#77=EDGE_LOOP('',(#331,#332,#333,#334));
#78=EDGE_LOOP('',(#335,#336,#337,#338));
#79=EDGE_LOOP('',(#339,#340,#341,#342));
#80=EDGE_LOOP('',(#343,#344,#345,#346));
#81=EDGE_LOOP('',(#347,#348,#349,#350));
#82=EDGE_LOOP('',(#351,#352,#353,#354));
#83=EDGE_LOOP('',(#355,#356,#357,#358));
#84=EDGE_LOOP('',(#359,#360,#361,#362));
#85=EDGE_LOOP('',(#363,#364,#365,#366));
#86=EDGE_LOOP('',(#367,#368,#369,#370));
#87=EDGE_LOOP('',(#371,#372,#373,#374));
#88=EDGE_LOOP('',(#375,#376,#377,#378,#379,#380,#381,#382));
#89=EDGE_LOOP('',(#383,#384,#385,#386,#387,#388,#389,#390));
#90=EDGE_LOOP('',(#391,#392,#393,#394,#395,#396,#397,#398));
#91=LINE('',#618,#135);
#92=LINE('',#620,#136);
#93=LINE('',#622,#137);
#94=LINE('',#623,#138);
#95=LINE('',#626,#139);
#96=LINE('',#628,#140);
#97=LINE('',#629,#141);
#98=LINE('',#632,#142);
#99=LINE('',#634,#143);
#100=LINE('',#635,#144);
#101=LINE('',#637,#145);
#102=LINE('',#638,#146);
#103=LINE('',#644,#147);
#104=LINE('',#648,#148);
#105=LINE('',#652,#149);
#106=LINE('',#655,#150);
#107=LINE('',#658,#151);
#108=LINE('',#661,#152);
#109=LINE('',#664,#153);
#110=LINE('',#665,#154);
#111=LINE('',#668,#155);
#112=LINE('',#672,#156);
#113=LINE('',#673,#157);
#114=LINE('',#676,#158);
#115=LINE('',#677,#159);
#116=LINE('',#681,#160);
#117=LINE('',#684,#161);
#118=LINE('',#685,#162);
#119=LINE('',#691,#163);
#120=LINE('',#693,#164);
#121=LINE('',#695,#165);
#122=LINE('',#696,#166);
#123=LINE('',#702,#167);
#124=LINE('',#705,#168);
#125=LINE('',#707,#169);
#126=LINE('',#708,#170);
#127=LINE('',#714,#171);
#128=LINE('',#717,#172);
#129=LINE('',#719,#173);
#130=LINE('',#720,#174);
#131=LINE('',#726,#175);
#132=LINE('',#729,#176);
#133=LINE('',#731,#177);
#134=LINE('',#732,#178);
#135=VECTOR('',#494,10.);
#136=VECTOR('',#495,10.);
#137=VECTOR('',#496,10.);
#138=VECTOR('',#497,10.);
#139=VECTOR('',#500,10.);
#140=VECTOR('',#501,10.);
#141=VECTOR('',#502,10.);
#142=VECTOR('',#505,10.);
#143=VECTOR('',#506,10.);
#144=VECTOR('',#507,10.);
#145=VECTOR('',#510,10.);
#146=VECTOR('',#511,10.);
#147=VECTOR('',#516,10.);
#148=VECTOR('',#519,10.);
#149=VECTOR('',#522,10.);
#150=VECTOR('',#525,10.);
#151=VECTOR('',#528,10.);
#152=VECTOR('',#531,10.);
#153=VECTOR('',#534,10.);
#154=VECTOR('',#535,10.);
#155=VECTOR('',#538,10.);
#156=VECTOR('',#543,10.);
#157=VECTOR('',#544,10.);
#158=VECTOR('',#547,10.);
#159=VECTOR('',#548,10.);
#160=VECTOR('',#553,10.);
#161=VECTOR('',#556,10.);
#162=VECTOR('',#557,10.);
#163=VECTOR('',#564,10.);
#164=VECTOR('',#565,10.);
#165=VECTOR('',#566,10.);
#166=VECTOR('',#567,10.);
#167=VECTOR('',#574,10.);
#168=VECTOR('',#577,10.);
#169=VECTOR('',#578,10.);
#170=VECTOR('',#579,10.);
#171=VECTOR('',#586,10.);
#172=VECTOR('',#589,10.);
#173=VECTOR('',#590,10.);
#174=VECTOR('',#591,10.);
#175=VECTOR('',#598,10.);
#176=VECTOR('',#601,10.);
#177=VECTOR('',#602,10.);
#178=VECTOR('',#603,10.);
#179=VERTEX_POINT('',#616);
#180=VERTEX_POINT('',#617);
#181=VERTEX_POINT('',#619);
#182=VERTEX_POINT('',#621);
#183=VERTEX_POINT('',#625);
#184=VERTEX_POINT('',#627);
#185=VERTEX_POINT('',#631);
#186=VERTEX_POINT('',#633);
#187=VERTEX_POINT('',#640);
#188=VERTEX_POINT('',#641);
#189=VERTEX_POINT('',#643);
#190=VERTEX_POINT('',#645);
#191=VERTEX_POINT('',#647);
#192=VERTEX_POINT('',#649);
#193=VERTEX_POINT('',#651);
#194=VERTEX_POINT('',#653);
#195=VERTEX_POINT('',#657);
#196=VERTEX_POINT('',#659);
#197=VERTEX_POINT('',#663);
#198=VERTEX_POINT('',#667);
#199=VERTEX_POINT('',#671);
#200=VERTEX_POINT('',#675);
#201=VERTEX_POINT('',#679);
#202=VERTEX_POINT('',#683);
#203=VERTEX_POINT('',#689);
#204=VERTEX_POINT('',#690);
#205=VERTEX_POINT('',#692);
#206=VERTEX_POINT('',#694);
#207=VERTEX_POINT('',#698);
#208=VERTEX_POINT('',#700);
#209=VERTEX_POINT('',#704);
#210=VERTEX_POINT('',#706);
#211=VERTEX_POINT('',#710);
#212=VERTEX_POINT('',#712);
#213=VERTEX_POINT('',#716);
#214=VERTEX_POINT('',#718);
#215=VERTEX_POINT('',#722);
#216=VERTEX_POINT('',#724);
#217=VERTEX_POINT('',#728);
#218=VERTEX_POINT('',#730);
#219=EDGE_CURVE('',#179,#180,#91,.T.);
#220=EDGE_CURVE('',#181,#179,#92,.T.);
#221=EDGE_CURVE('',#182,#181,#93,.T.);
#222=EDGE_CURVE('',#182,#180,#94,.T.);
#223=EDGE_CURVE('',#180,#183,#95,.T.);
#224=EDGE_CURVE('',#184,#182,#96,.T.);
#225=EDGE_CURVE('',#184,#183,#97,.T.);
#226=EDGE_CURVE('',#183,#185,#98,.T.);
#227=EDGE_CURVE('',#186,#184,#99,.T.);
#228=EDGE_CURVE('',#186,#185,#100,.T.);
#229=EDGE_CURVE('',#185,#179,#101,.T.);
#230=EDGE_CURVE('',#181,#186,#102,.T.);
#231=EDGE_CURVE('',#187,#188,#26,.T.);
#232=EDGE_CURVE('',#189,#187,#103,.T.);
#233=EDGE_CURVE('',#190,#189,#27,.T.);
#234=EDGE_CURVE('',#191,#190,#104,.T.);
#235=EDGE_CURVE('',#192,#191,#28,.T.);
#236=EDGE_CURVE('',#193,#192,#105,.T.);
#237=EDGE_CURVE('',#194,#193,#29,.T.);
#238=EDGE_CURVE('',#188,#194,#106,.T.);
#239=EDGE_CURVE('',#191,#195,#107,.T.);
#240=EDGE_CURVE('',#196,#195,#30,.T.);
#241=EDGE_CURVE('',#192,#196,#108,.T.);
#242=EDGE_CURVE('',#190,#197,#109,.T.);
#243=EDGE_CURVE('',#195,#197,#110,.T.);
#244=EDGE_CURVE('',#189,#198,#111,.T.);
#245=EDGE_CURVE('',#197,#198,#31,.T.);
#246=EDGE_CURVE('',#187,#199,#112,.T.);
#247=EDGE_CURVE('',#198,#199,#113,.T.);
#248=EDGE_CURVE('',#200,#196,#114,.T.);
#249=EDGE_CURVE('',#193,#200,#115,.T.);
#250=EDGE_CURVE('',#201,#200,#32,.T.);
#251=EDGE_CURVE('',#194,#201,#116,.T.);
#252=EDGE_CURVE('',#202,#201,#117,.T.);
#253=EDGE_CURVE('',#188,#202,#118,.T.);
#254=EDGE_CURVE('',#199,#202,#33,.T.);
#255=EDGE_CURVE('',#203,#204,#119,.T.);
#256=EDGE_CURVE('',#204,#205,#120,.T.);
#257=EDGE_CURVE('',#206,#205,#121,.T.);
#258=EDGE_CURVE('',#203,#206,#122,.T.);
#259=EDGE_CURVE('',#207,#203,#34,.T.);
#260=EDGE_CURVE('',#208,#206,#35,.T.);
#261=EDGE_CURVE('',#207,#208,#123,.T.);
#262=EDGE_CURVE('',#209,#207,#124,.T.);
#263=EDGE_CURVE('',#210,#208,#125,.T.);
#264=EDGE_CURVE('',#209,#210,#126,.T.);
#265=EDGE_CURVE('',#211,#209,#36,.T.);
#266=EDGE_CURVE('',#212,#210,#37,.T.);
#267=EDGE_CURVE('',#211,#212,#127,.T.);
#268=EDGE_CURVE('',#213,#211,#128,.T.);
#269=EDGE_CURVE('',#214,#212,#129,.T.);
#270=EDGE_CURVE('',#213,#214,#130,.T.);
#271=EDGE_CURVE('',#215,#213,#38,.T.);
#272=EDGE_CURVE('',#216,#214,#39,.T.);
#273=EDGE_CURVE('',#215,#216,#131,.T.);
#274=EDGE_CURVE('',#217,#215,#132,.T.);
#275=EDGE_CURVE('',#218,#216,#133,.T.);
#276=EDGE_CURVE('',#217,#218,#134,.T.);
#277=EDGE_CURVE('',#204,#217,#40,.T.);
#278=EDGE_CURVE('',#205,#218,#41,.T.);
#279=ORIENTED_EDGE('',*,*,#219,.F.);
#280=ORIENTED_EDGE('',*,*,#220,.F.);
#281=ORIENTED_EDGE('',*,*,#221,.F.);
#282=ORIENTED_EDGE('',*,*,#222,.T.);
#283=ORIENTED_EDGE('',*,*,#223,.F.);
#284=ORIENTED_EDGE('',*,*,#222,.F.);
#285=ORIENTED_EDGE('',*,*,#224,.F.);
#286=ORIENTED_EDGE('',*,*,#225,.T.);
#287=ORIENTED_EDGE('',*,*,#226,.F.);
#288=ORIENTED_EDGE('',*,*,#225,.F.);
#289=ORIENTED_EDGE('',*,*,#227,.F.);
#290=ORIENTED_EDGE('',*,*,#228,.T.);
#291=ORIENTED_EDGE('',*,*,#229,.F.);
#292=ORIENTED_EDGE('',*,*,#228,.F.);
#293=ORIENTED_EDGE('',*,*,#230,.F.);
#294=ORIENTED_EDGE('',*,*,#220,.T.);
#295=ORIENTED_EDGE('',*,*,#231,.F.);
#296=ORIENTED_EDGE('',*,*,#232,.F.);
#297=ORIENTED_EDGE('',*,*,#233,.F.);
#298=ORIENTED_EDGE('',*,*,#234,.F.);
#299=ORIENTED_EDGE('',*,*,#235,.F.);
#300=ORIENTED_EDGE('',*,*,#236,.F.);
#301=ORIENTED_EDGE('',*,*,#237,.F.);
#302=ORIENTED_EDGE('',*,*,#238,.F.);
#303=ORIENTED_EDGE('',*,*,#235,.T.);
#304=ORIENTED_EDGE('',*,*,#239,.T.);
#305=ORIENTED_EDGE('',*,*,#240,.F.);
#306=ORIENTED_EDGE('',*,*,#241,.F.);
#307=ORIENTED_EDGE('',*,*,#234,.T.);
#308=ORIENTED_EDGE('',*,*,#242,.T.);
#309=ORIENTED_EDGE('',*,*,#243,.F.);
#310=ORIENTED_EDGE('',*,*,#239,.F.);
#311=ORIENTED_EDGE('',*,*,#233,.T.);
#312=ORIENTED_EDGE('',*,*,#244,.T.);
#313=ORIENTED_EDGE('',*,*,#245,.F.);
#314=ORIENTED_EDGE('',*,*,#242,.F.);
#315=ORIENTED_EDGE('',*,*,#232,.T.);
#316=ORIENTED_EDGE('',*,*,#246,.T.);
#317=ORIENTED_EDGE('',*,*,#247,.F.);
#318=ORIENTED_EDGE('',*,*,#244,.F.);
#319=ORIENTED_EDGE('',*,*,#236,.T.);
#320=ORIENTED_EDGE('',*,*,#241,.T.);
#321=ORIENTED_EDGE('',*,*,#248,.F.);
#322=ORIENTED_EDGE('',*,*,#249,.F.);
#323=ORIENTED_EDGE('',*,*,#226,.T.);
#324=ORIENTED_EDGE('',*,*,#229,.T.);
#325=ORIENTED_EDGE('',*,*,#219,.T.);
#326=ORIENTED_EDGE('',*,*,#223,.T.);
#327=ORIENTED_EDGE('',*,*,#237,.T.);
#328=ORIENTED_EDGE('',*,*,#249,.T.);
#329=ORIENTED_EDGE('',*,*,#250,.F.);
#330=ORIENTED_EDGE('',*,*,#251,.F.);
#331=ORIENTED_EDGE('',*,*,#238,.T.);
#332=ORIENTED_EDGE('',*,*,#251,.T.);
#333=ORIENTED_EDGE('',*,*,#252,.F.);
#334=ORIENTED_EDGE('',*,*,#253,.F.);
#335=ORIENTED_EDGE('',*,*,#231,.T.);
#336=ORIENTED_EDGE('',*,*,#253,.T.);
#337=ORIENTED_EDGE('',*,*,#254,.F.);
#338=ORIENTED_EDGE('',*,*,#246,.F.);
#339=ORIENTED_EDGE('',*,*,#255,.T.);
#340=ORIENTED_EDGE('',*,*,#256,.T.);
#341=ORIENTED_EDGE('',*,*,#257,.F.);
#342=ORIENTED_EDGE('',*,*,#258,.F.);
#343=ORIENTED_EDGE('',*,*,#259,.T.);
#344=ORIENTED_EDGE('',*,*,#258,.T.);
#345=ORIENTED_EDGE('',*,*,#260,.F.);
#346=ORIENTED_EDGE('',*,*,#261,.F.);
#347=ORIENTED_EDGE('',*,*,#262,.T.);
#348=ORIENTED_EDGE('',*,*,#261,.T.);
#349=ORIENTED_EDGE('',*,*,#263,.F.);
#350=ORIENTED_EDGE('',*,*,#264,.F.);
#351=ORIENTED_EDGE('',*,*,#265,.T.);
#352=ORIENTED_EDGE('',*,*,#264,.T.);
#353=ORIENTED_EDGE('',*,*,#266,.F.);
#354=ORIENTED_EDGE('',*,*,#267,.F.);
#355=ORIENTED_EDGE('',*,*,#268,.T.);
#356=ORIENTED_EDGE('',*,*,#267,.T.);
#357=ORIENTED_EDGE('',*,*,#269,.F.);
#358=ORIENTED_EDGE('',*,*,#270,.F.);
#359=ORIENTED_EDGE('',*,*,#271,.T.);
#360=ORIENTED_EDGE('',*,*,#270,.T.);
#361=ORIENTED_EDGE('',*,*,#272,.F.);
#362=ORIENTED_EDGE('',*,*,#273,.F.);
#363=ORIENTED_EDGE('',*,*,#274,.T.);
#364=ORIENTED_EDGE('',*,*,#273,.T.);
#365=ORIENTED_EDGE('',*,*,#275,.F.);
#366=ORIENTED_EDGE('',*,*,#276,.F.);
#367=ORIENTED_EDGE('',*,*,#227,.T.);
#368=ORIENTED_EDGE('',*,*,#224,.T.);
#369=ORIENTED_EDGE('',*,*,#221,.T.);
#370=ORIENTED_EDGE('',*,*,#230,.T.);
#371=ORIENTED_EDGE('',*,*,#277,.T.);
#372=ORIENTED_EDGE('',*,*,#276,.T.);
#373=ORIENTED_EDGE('',*,*,#278,.F.);
#374=ORIENTED_EDGE('',*,*,#256,.F.);
#375=ORIENTED_EDGE('',*,*,#278,.T.);
#376=ORIENTED_EDGE('',*,*,#275,.T.);
#377=ORIENTED_EDGE('',*,*,#272,.T.);
#378=ORIENTED_EDGE('',*,*,#269,.T.);
#379=ORIENTED_EDGE('',*,*,#266,.T.);
#380=ORIENTED_EDGE('',*,*,#263,.T.);
#381=ORIENTED_EDGE('',*,*,#260,.T.);
#382=ORIENTED_EDGE('',*,*,#257,.T.);
#383=ORIENTED_EDGE('',*,*,#254,.T.);
#384=ORIENTED_EDGE('',*,*,#252,.T.);
#385=ORIENTED_EDGE('',*,*,#250,.T.);
#386=ORIENTED_EDGE('',*,*,#248,.T.);
#387=ORIENTED_EDGE('',*,*,#240,.T.);
#388=ORIENTED_EDGE('',*,*,#243,.T.);
#389=ORIENTED_EDGE('',*,*,#245,.T.);
#390=ORIENTED_EDGE('',*,*,#247,.T.);
#391=ORIENTED_EDGE('',*,*,#277,.F.);
#392=ORIENTED_EDGE('',*,*,#255,.F.);
#393=ORIENTED_EDGE('',*,*,#259,.F.);
#394=ORIENTED_EDGE('',*,*,#262,.F.);
#395=ORIENTED_EDGE('',*,*,#265,.F.);
#396=ORIENTED_EDGE('',*,*,#268,.F.);
#397=ORIENTED_EDGE('',*,*,#271,.F.);
#398=ORIENTED_EDGE('',*,*,#274,.F.);
#399=PLANE('',#451);
#400=PLANE('',#452);
#401=PLANE('',#453);
#402=PLANE('',#454);
#403=PLANE('',#455);
#404=PLANE('',#462);
#405=PLANE('',#465);
#406=PLANE('',#466);
#407=PLANE('',#469);
#408=PLANE('',#472);
#409=PLANE('',#476);
#410=PLANE('',#480);
#411=PLANE('',#484);
#412=PLANE('',#488);
#413=PLANE('',#489);
#414=ADVANCED_FACE('',(#42),#399,.F.);
#415=ADVANCED_FACE('',(#43),#400,.F.);
#416=ADVANCED_FACE('',(#44),#401,.F.);
#417=ADVANCED_FACE('',(#45),#402,.F.);
#418=ADVANCED_FACE('',(#46),#403,.T.);
#419=ADVANCED_FACE('',(#47),#18,.F.);
#420=ADVANCED_FACE('',(#48),#404,.T.);
#421=ADVANCED_FACE('',(#49),#19,.F.);
#422=ADVANCED_FACE('',(#50),#405,.T.);
#423=ADVANCED_FACE('',(#51,#15),#406,.T.);
#424=ADVANCED_FACE('',(#52),#20,.F.);
#425=ADVANCED_FACE('',(#53),#407,.T.);
#426=ADVANCED_FACE('',(#54),#21,.F.);
#427=ADVANCED_FACE('',(#55),#408,.T.);
#428=ADVANCED_FACE('',(#56),#22,.T.);
#429=ADVANCED_FACE('',(#57),#409,.T.);
#430=ADVANCED_FACE('',(#58),#23,.T.);
#431=ADVANCED_FACE('',(#59),#410,.T.);
#432=ADVANCED_FACE('',(#60),#24,.T.);
#433=ADVANCED_FACE('',(#61,#16),#411,.T.);
#434=ADVANCED_FACE('',(#62),#25,.T.);
#435=ADVANCED_FACE('',(#63,#17),#412,.T.);
#436=ADVANCED_FACE('',(#64),#413,.F.);
#437=CLOSED_SHELL('',(#414,#415,#416,#417,#418,#419,#420,#421,#422,#423,
#424,#425,#426,#427,#428,#429,#430,#431,#432,#433,#434,#435,#436));
#438=DERIVED_UNIT_ELEMENT(#440,1.);
#439=DERIVED_UNIT_ELEMENT(#743,-3.);
#440=(
MASS_UNIT()
NAMED_UNIT(*)
SI_UNIT(.KILO.,.GRAM.)
);
#441=DERIVED_UNIT((#438,#439));
#442=MEASURE_REPRESENTATION_ITEM('density measure',
POSITIVE_RATIO_MEASURE(7850.),#441);
#443=PROPERTY_DEFINITION_REPRESENTATION(#448,#445);
#444=PROPERTY_DEFINITION_REPRESENTATION(#449,#446);
#445=REPRESENTATION('material name',(#447),#740);
#446=REPRESENTATION('density',(#442),#740);
#447=DESCRIPTIVE_REPRESENTATION_ITEM('A\X\E7o','A\X\E7o');
#448=PROPERTY_DEFINITION('material property','material name',#750);
#449=PROPERTY_DEFINITION('material property','density of part',#750);
#450=AXIS2_PLACEMENT_3D('',#614,#490,#491);
#451=AXIS2_PLACEMENT_3D('',#615,#492,#493);
#452=AXIS2_PLACEMENT_3D('',#624,#498,#499);
#453=AXIS2_PLACEMENT_3D('',#630,#503,#504);
#454=AXIS2_PLACEMENT_3D('',#636,#508,#509);
#455=AXIS2_PLACEMENT_3D('',#639,#512,#513);
#456=AXIS2_PLACEMENT_3D('',#642,#514,#515);
#457=AXIS2_PLACEMENT_3D('',#646,#517,#518);
#458=AXIS2_PLACEMENT_3D('',#650,#520,#521);
#459=AXIS2_PLACEMENT_3D('',#654,#523,#524);
#460=AXIS2_PLACEMENT_3D('',#656,#526,#527);
#461=AXIS2_PLACEMENT_3D('',#660,#529,#530);
#462=AXIS2_PLACEMENT_3D('',#662,#532,#533);
#463=AXIS2_PLACEMENT_3D('',#666,#536,#537);
#464=AXIS2_PLACEMENT_3D('',#669,#539,#540);
#465=AXIS2_PLACEMENT_3D('',#670,#541,#542);
#466=AXIS2_PLACEMENT_3D('',#674,#545,#546);
#467=AXIS2_PLACEMENT_3D('',#678,#549,#550);
#468=AXIS2_PLACEMENT_3D('',#680,#551,#552);
#469=AXIS2_PLACEMENT_3D('',#682,#554,#555);
#470=AXIS2_PLACEMENT_3D('',#686,#558,#559);
#471=AXIS2_PLACEMENT_3D('',#687,#560,#561);
#472=AXIS2_PLACEMENT_3D('',#688,#562,#563);
#473=AXIS2_PLACEMENT_3D('',#697,#568,#569);
#474=AXIS2_PLACEMENT_3D('',#699,#570,#571);
#475=AXIS2_PLACEMENT_3D('',#701,#572,#573);
#476=AXIS2_PLACEMENT_3D('',#703,#575,#576);
#477=AXIS2_PLACEMENT_3D('',#709,#580,#581);
#478=AXIS2_PLACEMENT_3D('',#711,#582,#583);
#479=AXIS2_PLACEMENT_3D('',#713,#584,#585);
#480=AXIS2_PLACEMENT_3D('',#715,#587,#588);
#481=AXIS2_PLACEMENT_3D('',#721,#592,#593);
#482=AXIS2_PLACEMENT_3D('',#723,#594,#595);
#483=AXIS2_PLACEMENT_3D('',#725,#596,#597);
#484=AXIS2_PLACEMENT_3D('',#727,#599,#600);
#485=AXIS2_PLACEMENT_3D('',#733,#604,#605);
#486=AXIS2_PLACEMENT_3D('',#734,#606,#607);
#487=AXIS2_PLACEMENT_3D('',#735,#608,#609);
#488=AXIS2_PLACEMENT_3D('',#736,#610,#611);
#489=AXIS2_PLACEMENT_3D('',#737,#612,#613);
#490=DIRECTION('axis',(0.,0.,1.));
#491=DIRECTION('refdir',(1.,0.,0.));
#492=DIRECTION('center_axis',(0.,-1.,0.));
#493=DIRECTION('ref_axis',(-1.,0.,0.));
#494=DIRECTION('',(1.,0.,0.));
#495=DIRECTION('',(0.,0.,-1.));
#496=DIRECTION('',(-1.,0.,0.));
#497=DIRECTION('',(0.,0.,-1.));
#498=DIRECTION('center_axis',(1.,0.,0.));
#499=DIRECTION('ref_axis',(0.,-1.,0.));
#500=DIRECTION('',(0.,1.,0.));
#501=DIRECTION('',(0.,-1.,0.));
#502=DIRECTION('',(0.,0.,-1.));
#503=DIRECTION('center_axis',(0.,1.,0.));
#504=DIRECTION('ref_axis',(1.,0.,0.));
#505=DIRECTION('',(-1.,0.,0.));
#506=DIRECTION('',(1.,0.,0.));
#507=DIRECTION('',(0.,0.,-1.));
#508=DIRECTION('center_axis',(-1.,0.,0.));
#509=DIRECTION('ref_axis',(0.,1.,0.));
#510=DIRECTION('',(0.,-1.,0.));
#511=DIRECTION('',(0.,1.,0.));
#512=DIRECTION('center_axis',(0.,1.,0.));
#513=DIRECTION('ref_axis',(1.,0.,0.));
#514=DIRECTION('center_axis',(0.,-1.,0.));
#515=DIRECTION('ref_axis',(1.,0.,-2.22044604925031E-15));
#516=DIRECTION('',(1.,0.,0.));
#517=DIRECTION('center_axis',(0.,-1.,0.));
#518=DIRECTION('ref_axis',(0.,0.,-1.));
#519=DIRECTION('',(-1.93082265152201E-16,0.,-1.));
#520=DIRECTION('center_axis',(0.,-1.,0.));
#521=DIRECTION('ref_axis',(-1.,0.,0.));
#522=DIRECTION('',(-1.,0.,0.));
#523=DIRECTION('center_axis',(0.,-1.,0.));
#524=DIRECTION('ref_axis',(0.,0.,1.));
#525=DIRECTION('',(0.,0.,1.));
#526=DIRECTION('center_axis',(0.,1.,0.));
#527=DIRECTION('ref_axis',(-1.,0.,0.));
#528=DIRECTION('',(0.,1.,0.));
#529=DIRECTION('center_axis',(0.,-1.,0.));
#530=DIRECTION('ref_axis',(-1.,0.,0.));
#531=DIRECTION('',(0.,1.,0.));
#532=DIRECTION('center_axis',(1.,0.,-1.93082265152201E-16));
#533=DIRECTION('ref_axis',(-1.93082265152201E-16,0.,-1.));
#534=DIRECTION('',(0.,1.,0.));
#535=DIRECTION('',(-1.93082265152201E-16,0.,-1.));
#536=DIRECTION('center_axis',(0.,1.,0.));
#537=DIRECTION('ref_axis',(0.,0.,-1.));
#538=DIRECTION('',(0.,1.,0.));
#539=DIRECTION('center_axis',(0.,-1.,0.));
#540=DIRECTION('ref_axis',(0.,0.,-1.));
#541=DIRECTION('center_axis',(0.,0.,1.));
#542=DIRECTION('ref_axis',(1.,0.,0.));
#543=DIRECTION('',(0.,1.,0.));
#544=DIRECTION('',(1.,0.,0.));
#545=DIRECTION('center_axis',(0.,0.,-1.));
#546=DIRECTION('ref_axis',(-1.,0.,0.));
#547=DIRECTION('',(-1.,0.,0.));
#548=DIRECTION('',(0.,1.,0.));
#549=DIRECTION('center_axis',(0.,1.,0.));
#550=DIRECTION('ref_axis',(0.,0.,1.));
#551=DIRECTION('center_axis',(0.,-1.,0.));
#552=DIRECTION('ref_axis',(0.,0.,1.));
#553=DIRECTION('',(0.,1.,0.));
#554=DIRECTION('center_axis',(-1.,0.,0.));
#555=DIRECTION('ref_axis',(0.,0.,1.));
#556=DIRECTION('',(0.,0.,1.));
#557=DIRECTION('',(0.,1.,0.));
#558=DIRECTION('center_axis',(0.,1.,0.));
#559=DIRECTION('ref_axis',(1.,0.,-2.22044604925031E-15));
#560=DIRECTION('center_axis',(0.,-1.,0.));
#561=DIRECTION('ref_axis',(1.,0.,-2.22044604925031E-15));
#562=DIRECTION('center_axis',(-1.,0.,0.));
#563=DIRECTION('ref_axis',(0.,0.,1.));
#564=DIRECTION('',(0.,0.,1.));
#565=DIRECTION('',(0.,1.,0.));
#566=DIRECTION('',(0.,0.,1.));
#567=DIRECTION('',(0.,1.,0.));
#568=DIRECTION('center_axis',(0.,1.,0.));
#569=DIRECTION('ref_axis',(-1.26882631385732E-15,0.,-1.));
#570=DIRECTION('center_axis',(0.,1.,0.));
#571=DIRECTION('ref_axis',(-1.26882631385732E-15,0.,-1.));
#572=DIRECTION('center_axis',(0.,1.,0.));
#573=DIRECTION('ref_axis',(-1.26882631385732E-15,0.,-1.));
#574=DIRECTION('',(0.,1.,0.));
#575=DIRECTION('center_axis',(0.,0.,-1.));
#576=DIRECTION('ref_axis',(-1.,0.,0.));
#577=DIRECTION('',(-1.,0.,0.));
#578=DIRECTION('',(-1.,0.,0.));
#579=DIRECTION('',(0.,1.,0.));
#580=DIRECTION('center_axis',(0.,1.,0.));
#581=DIRECTION('ref_axis',(1.,0.,-1.26882631385732E-15));
#582=DIRECTION('center_axis',(0.,1.,0.));
#583=DIRECTION('ref_axis',(1.,0.,-1.26882631385732E-15));
#584=DIRECTION('center_axis',(0.,1.,0.));
#585=DIRECTION('ref_axis',(1.,0.,-1.26882631385732E-15));
#586=DIRECTION('',(0.,1.,0.));
#587=DIRECTION('center_axis',(1.,0.,0.));
#588=DIRECTION('ref_axis',(0.,0.,-1.));
#589=DIRECTION('',(0.,0.,-1.));
#590=DIRECTION('',(0.,0.,-1.));
#591=DIRECTION('',(0.,1.,0.));
#592=DIRECTION('center_axis',(0.,1.,0.));
#593=DIRECTION('ref_axis',(0.,0.,1.));
#594=DIRECTION('center_axis',(0.,1.,0.));
#595=DIRECTION('ref_axis',(0.,0.,1.));
#596=DIRECTION('center_axis',(0.,1.,0.));
#597=DIRECTION('ref_axis',(0.,0.,1.));
#598=DIRECTION('',(0.,1.,0.));
#599=DIRECTION('center_axis',(0.,0.,1.));
#600=DIRECTION('ref_axis',(1.,0.,0.));
#601=DIRECTION('',(1.,0.,0.));
#602=DIRECTION('',(1.,0.,0.));
#603=DIRECTION('',(0.,1.,0.));
#604=DIRECTION('center_axis',(0.,1.,0.));
#605=DIRECTION('ref_axis',(-1.,0.,0.));
#606=DIRECTION('center_axis',(0.,1.,0.));
#607=DIRECTION('ref_axis',(-1.,0.,0.));
#608=DIRECTION('center_axis',(0.,1.,0.));
#609=DIRECTION('ref_axis',(-1.,0.,0.));
#610=DIRECTION('center_axis',(0.,1.,0.));
#611=DIRECTION('ref_axis',(1.,0.,0.));
#612=DIRECTION('center_axis',(0.,1.,0.));
#613=DIRECTION('ref_axis',(1.,0.,0.));
#614=CARTESIAN_POINT('',(0.,0.,0.));
#615=CARTESIAN_POINT('Origin',(-25.7254356125691,25.,53.));
#616=CARTESIAN_POINT('',(-35.7254356125691,25.,50.));
#617=CARTESIAN_POINT('',(-25.7254356125691,25.,50.));
#618=CARTESIAN_POINT('',(15.1372821937154,25.,50.));
#619=CARTESIAN_POINT('',(-35.7254356125691,25.,53.));
#620=CARTESIAN_POINT('',(-35.7254356125691,25.,53.));
#621=CARTESIAN_POINT('',(-25.7254356125691,25.,53.));
#622=CARTESIAN_POINT('',(-40.8627178062846,25.,53.));
#623=CARTESIAN_POINT('',(-25.7254356125691,25.,53.));
#624=CARTESIAN_POINT('Origin',(-25.7254356125691,35.,53.));
#625=CARTESIAN_POINT('',(-25.7254356125691,35.,50.));
#626=CARTESIAN_POINT('',(-25.7254356125691,17.5,50.));
#627=CARTESIAN_POINT('',(-25.7254356125691,35.,53.));
#628=CARTESIAN_POINT('',(-25.7254356125691,17.5,53.));
#629=CARTESIAN_POINT('',(-25.7254356125691,35.,53.));
#630=CARTESIAN_POINT('Origin',(-35.7254356125691,35.,53.));
#631=CARTESIAN_POINT('',(-35.7254356125691,35.,50.));
#632=CARTESIAN_POINT('',(10.1372821937154,35.,50.));
#633=CARTESIAN_POINT('',(-35.7254356125691,35.,53.));
#634=CARTESIAN_POINT('',(-45.8627178062846,35.,53.));
#635=CARTESIAN_POINT('',(-35.7254356125691,35.,53.));
#636=CARTESIAN_POINT('Origin',(-35.7254356125691,25.,53.));
#637=CARTESIAN_POINT('',(-35.7254356125691,12.5,50.));
#638=CARTESIAN_POINT('',(-35.7254356125691,12.5,53.));
#639=CARTESIAN_POINT('Origin',(-1.77635683940025E-14,5.,0.));
#640=CARTESIAN_POINT('',(56.,5.,-50.));
#641=CARTESIAN_POINT('',(60.,5.,-46.));
#642=CARTESIAN_POINT('Origin',(56.,5.,-46.));
#643=CARTESIAN_POINT('',(-56.,5.,-50.));
#644=CARTESIAN_POINT('',(-28.,5.,-50.));
#645=CARTESIAN_POINT('',(-60.,5.,-46.));
#646=CARTESIAN_POINT('Origin',(-56.,5.,-46.));
#647=CARTESIAN_POINT('',(-60.,5.,46.));
#648=CARTESIAN_POINT('',(-60.,5.,23.));
#649=CARTESIAN_POINT('',(-56.,5.,50.));
#650=CARTESIAN_POINT('Origin',(-56.,5.,46.));
#651=CARTESIAN_POINT('',(56.,5.,50.));
#652=CARTESIAN_POINT('',(28.,5.,50.));
#653=CARTESIAN_POINT('',(60.,5.,46.));
#654=CARTESIAN_POINT('Origin',(56.,5.,46.));
#655=CARTESIAN_POINT('',(60.,5.,-23.));
#656=CARTESIAN_POINT('Origin',(-56.,0.,46.));
#657=CARTESIAN_POINT('',(-60.,60.,46.));
#658=CARTESIAN_POINT('',(-60.,0.,46.));
#659=CARTESIAN_POINT('',(-56.,60.,50.));
#660=CARTESIAN_POINT('Origin',(-56.,60.,46.));
#661=CARTESIAN_POINT('',(-56.,0.,50.));
#662=CARTESIAN_POINT('Origin',(-60.,0.,46.));
#663=CARTESIAN_POINT('',(-60.,60.,-46.));
#664=CARTESIAN_POINT('',(-60.,0.,-46.));
#665=CARTESIAN_POINT('',(-60.,60.,-46.));
#666=CARTESIAN_POINT('Origin',(-56.,0.,-46.));
#667=CARTESIAN_POINT('',(-56.,60.,-50.));
#668=CARTESIAN_POINT('',(-56.,0.,-50.));
#669=CARTESIAN_POINT('Origin',(-56.,60.,-46.));
#670=CARTESIAN_POINT('Origin',(-56.,0.,-50.));
#671=CARTESIAN_POINT('',(56.,60.,-50.));
#672=CARTESIAN_POINT('',(56.,0.,-50.));
#673=CARTESIAN_POINT('',(56.,60.,-50.));
#674=CARTESIAN_POINT('Origin',(56.,0.,50.));
#675=CARTESIAN_POINT('',(56.,60.,50.));
#676=CARTESIAN_POINT('',(-56.,60.,50.));
#677=CARTESIAN_POINT('',(56.,0.,50.));
#678=CARTESIAN_POINT('Origin',(56.,0.,46.));
#679=CARTESIAN_POINT('',(60.,60.,46.));
#680=CARTESIAN_POINT('Origin',(56.,60.,46.));
#681=CARTESIAN_POINT('',(60.,0.,46.));
#682=CARTESIAN_POINT('Origin',(60.,0.,-46.));
#683=CARTESIAN_POINT('',(60.,60.,-46.));
#684=CARTESIAN_POINT('',(60.,60.,46.));
#685=CARTESIAN_POINT('',(60.,0.,-46.));
#686=CARTESIAN_POINT('Origin',(56.,0.,-46.));
#687=CARTESIAN_POINT('Origin',(56.,60.,-46.));
#688=CARTESIAN_POINT('Origin',(-63.,0.,-46.));
#689=CARTESIAN_POINT('',(-63.,0.,-46.));
#690=CARTESIAN_POINT('',(-63.,0.,46.));
#691=CARTESIAN_POINT('',(-63.,0.,-46.));
#692=CARTESIAN_POINT('',(-63.,60.,46.));
#693=CARTESIAN_POINT('',(-63.,0.,46.));
#694=CARTESIAN_POINT('',(-63.,60.,-46.));
#695=CARTESIAN_POINT('',(-63.,60.,-46.));
#696=CARTESIAN_POINT('',(-63.,0.,-46.));
#697=CARTESIAN_POINT('Origin',(-56.,0.,-46.));
#698=CARTESIAN_POINT('',(-56.,0.,-53.));
#699=CARTESIAN_POINT('Origin',(-56.,0.,-46.));
#700=CARTESIAN_POINT('',(-56.,60.,-53.));
#701=CARTESIAN_POINT('Origin',(-56.,60.,-46.));
#702=CARTESIAN_POINT('',(-56.,0.,-53.));
#703=CARTESIAN_POINT('Origin',(56.,0.,-53.));
#704=CARTESIAN_POINT('',(56.,0.,-53.));
#705=CARTESIAN_POINT('',(56.,0.,-53.));
#706=CARTESIAN_POINT('',(56.,60.,-53.));
#707=CARTESIAN_POINT('',(56.,60.,-53.));
#708=CARTESIAN_POINT('',(56.,0.,-53.));
#709=CARTESIAN_POINT('Origin',(56.,0.,-46.));
#710=CARTESIAN_POINT('',(63.,0.,-46.));
#711=CARTESIAN_POINT('Origin',(56.,0.,-46.));
#712=CARTESIAN_POINT('',(63.,60.,-46.));
#713=CARTESIAN_POINT('Origin',(56.,60.,-46.));
#714=CARTESIAN_POINT('',(63.,0.,-46.));
#715=CARTESIAN_POINT('Origin',(63.,0.,46.));
#716=CARTESIAN_POINT('',(63.,0.,46.));
#717=CARTESIAN_POINT('',(63.,0.,46.));
#718=CARTESIAN_POINT('',(63.,60.,46.));
#719=CARTESIAN_POINT('',(63.,60.,46.));
#720=CARTESIAN_POINT('',(63.,0.,46.));
#721=CARTESIAN_POINT('Origin',(56.,0.,46.));
#722=CARTESIAN_POINT('',(56.,0.,53.));
#723=CARTESIAN_POINT('Origin',(56.,0.,46.));
#724=CARTESIAN_POINT('',(56.,60.,53.));
#725=CARTESIAN_POINT('Origin',(56.,60.,46.));
#726=CARTESIAN_POINT('',(56.,0.,53.));
#727=CARTESIAN_POINT('Origin',(-56.,0.,53.));
#728=CARTESIAN_POINT('',(-56.,0.,53.));
#729=CARTESIAN_POINT('',(-56.,0.,53.));
#730=CARTESIAN_POINT('',(-56.,60.,53.));
#731=CARTESIAN_POINT('',(-56.,60.,53.));
#732=CARTESIAN_POINT('',(-56.,0.,53.));
#733=CARTESIAN_POINT('Origin',(-56.,0.,46.));
#734=CARTESIAN_POINT('Origin',(-56.,0.,46.));
#735=CARTESIAN_POINT('Origin',(-56.,60.,46.));
#736=CARTESIAN_POINT('Origin',(-8.88178419700125E-15,60.,0.));
#737=CARTESIAN_POINT('Origin',(-8.88178419700125E-15,0.,0.));
#738=UNCERTAINTY_MEASURE_WITH_UNIT(LENGTH_MEASURE(0.01),#742,
'DISTANCE_ACCURACY_VALUE',
'Maximum model space distance between geometric entities at asserted c
onnectivities');
#739=UNCERTAINTY_MEASURE_WITH_UNIT(LENGTH_MEASURE(0.01),#742,
'DISTANCE_ACCURACY_VALUE',
'Maximum model space distance between geometric entities at asserted c
onnectivities');
#740=(
GEOMETRIC_REPRESENTATION_CONTEXT(3)
GLOBAL_UNCERTAINTY_ASSIGNED_CONTEXT((#738))
GLOBAL_UNIT_ASSIGNED_CONTEXT((#742,#744,#745))
REPRESENTATION_CONTEXT('','3D')
);
#741=(
GEOMETRIC_REPRESENTATION_CONTEXT(3)
GLOBAL_UNCERTAINTY_ASSIGNED_CONTEXT((#739))
GLOBAL_UNIT_ASSIGNED_CONTEXT((#742,#744,#745))
REPRESENTATION_CONTEXT('','3D')
);
#742=(
LENGTH_UNIT()
NAMED_UNIT(*)
SI_UNIT(.MILLI.,.METRE.)
);
#743=(
LENGTH_UNIT()
NAMED_UNIT(*)
SI_UNIT($,.METRE.)
);
#744=(
NAMED_UNIT(*)
PLANE_ANGLE_UNIT()
SI_UNIT($,.RADIAN.)
);
#745=(
NAMED_UNIT(*)
SI_UNIT($,.STERADIAN.)
SOLID_ANGLE_UNIT()
);
#746=SHAPE_DEFINITION_REPRESENTATION(#747,#748);
#747=PRODUCT_DEFINITION_SHAPE('',$,#750);
#748=SHAPE_REPRESENTATION('',(#450),#740);
#749=PRODUCT_DEFINITION_CONTEXT('part definition',#754,'design');
#750=PRODUCT_DEFINITION('(N\X\E3o salvo)','(N\X\E3o salvo)',#751,#749);
#751=PRODUCT_DEFINITION_FORMATION('',$,#756);
#752=PRODUCT_RELATED_PRODUCT_CATEGORY('(N\X\E3o salvo)','(N\X\E3o salv
o)',(#756));
#753=APPLICATION_PROTOCOL_DEFINITION('international standard',
'automotive_design',2009,#754);
#754=APPLICATION_CONTEXT(
'Core Data for Automotive Mechanical Design Process');
#755=PRODUCT_CONTEXT('part definition',#754,'mechanical');
#756=PRODUCT('(N\X\E3o salvo)','(N\X\E3o salvo)',$,(#755));
#757=PRESENTATION_STYLE_ASSIGNMENT((#760));
#758=PRESENTATION_STYLE_ASSIGNMENT((#761));
#759=PRESENTATION_STYLE_ASSIGNMENT((#762));
#760=SURFACE_STYLE_USAGE(.BOTH.,#763);
#761=SURFACE_STYLE_USAGE(.BOTH.,#764);
#762=SURFACE_STYLE_USAGE(.BOTH.,#765);
#763=SURFACE_SIDE_STYLE('',(#766));
#764=SURFACE_SIDE_STYLE('',(#767));
#765=SURFACE_SIDE_STYLE('',(#768));
#766=SURFACE_STYLE_FILL_AREA(#769);
#767=SURFACE_STYLE_FILL_AREA(#770);
#768=SURFACE_STYLE_FILL_AREA(#771);
#769=FILL_AREA_STYLE('A\X\E7o - Acetinado',(#772));
#770=FILL_AREA_STYLE('Pintura - Esmalte com brilho (Amarelo)',(#773));
#771=FILL_AREA_STYLE('Pintura - Esmalte com brilho (Azul)',(#774));
#772=FILL_AREA_STYLE_COLOUR('A\X\E7o - Acetinado',#775);
#773=FILL_AREA_STYLE_COLOUR('Pintura - Esmalte com brilho (Amarelo)',#776);
#774=FILL_AREA_STYLE_COLOUR('Pintura - Esmalte com brilho (Azul)',#777);
#775=COLOUR_RGB('A\X\E7o - Acetinado',0.627450980392157,0.627450980392157,
0.627450980392157);
#776=COLOUR_RGB('Pintura - Esmalte com brilho (Amarelo)',0.909803921568627,
0.67843137254902,0.137254901960784);
#777=COLOUR_RGB('Pintura - Esmalte com brilho (Azul)',0.188235294117647,
0.231372549019608,0.588235294117647);
ENDSEC;
END-ISO-10303-21;
