ISO-10303-21;
HEADER;
/* Generated by software containing ST-Developer
 * from STEP Tools, Inc. (www.steptools.com) 
 */

FILE_DESCRIPTION(
/* description */ (''),
/* implementation_level */ '2;1');

FILE_NAME(
/* name */ 'tampa.step',
/* time_stamp */ '2026-06-24T21:04:43-03:00',
/* author */ (''),
/* organization */ (''),
/* preprocessor_version */ 'ST-DEVELOPER v20.1',
/* originating_system */ 'Autodesk Translation Framework v15.8.0.0',
/* authorisation */ '');

FILE_SCHEMA (('AUTOMOTIVE_DESIGN { 1 0 10303 214 3 1 1 }'));
ENDSEC;

DATA;
#10=MECHANICAL_DESIGN_GEOMETRIC_PRESENTATION_REPRESENTATION('',(#13),#1355);
#11=SHAPE_REPRESENTATION_RELATIONSHIP('SRR','None',#1362,#12);
#12=ADVANCED_BREP_SHAPE_REPRESENTATION('',(#14),#1354);
#13=STYLED_ITEM('',(#1373),#14);
#14=MANIFOLD_SOLID_BREP('Corpo3',#807);
#15=FACE_BOUND('',#130,.T.);
#16=FACE_BOUND('',#132,.T.);
#17=FACE_BOUND('',#134,.T.);
#18=FACE_BOUND('',#135,.T.);
#19=FACE_BOUND('',#145,.T.);
#20=FACE_BOUND('',#146,.T.);
#21=CYLINDRICAL_SURFACE('',#846,4.00000000000001);
#22=CYLINDRICAL_SURFACE('',#849,4.00000000000001);
#23=CYLINDRICAL_SURFACE('',#868,7.);
#24=CYLINDRICAL_SURFACE('',#871,7.00000000000001);
#25=CYLINDRICAL_SURFACE('',#874,7.00000000000002);
#26=CYLINDRICAL_SURFACE('',#877,7.00000000000001);
#27=CYLINDRICAL_SURFACE('',#882,1.00000000000001);
#28=CYLINDRICAL_SURFACE('',#884,1.00000000000001);
#29=CYLINDRICAL_SURFACE('',#886,1.00000000000001);
#30=CYLINDRICAL_SURFACE('',#888,1.00000000000001);
#31=CYLINDRICAL_SURFACE('',#890,4.);
#32=CYLINDRICAL_SURFACE('',#892,4.00000000000001);
#33=CIRCLE('',#830,2.50000000000002);
#34=CIRCLE('',#831,4.00000000000001);
#35=CIRCLE('',#835,2.5);
#36=CIRCLE('',#836,4.);
#37=CIRCLE('',#838,2.50000000000002);
#38=CIRCLE('',#839,4.00000000000001);
#39=CIRCLE('',#843,2.50000000000002);
#40=CIRCLE('',#844,4.00000000000001);
#41=CIRCLE('',#847,4.00000000000001);
#42=CIRCLE('',#850,4.00000000000001);
#43=CIRCLE('',#852,1.00000000000001);
#44=CIRCLE('',#853,1.00000000000001);
#45=CIRCLE('',#854,1.00000000000001);
#46=CIRCLE('',#855,1.00000000000001);
#47=CIRCLE('',#857,7.);
#48=CIRCLE('',#858,7.00000000000001);
#49=CIRCLE('',#859,7.00000000000002);
#50=CIRCLE('',#860,7.00000000000001);
#51=CIRCLE('',#861,4.);
#52=CIRCLE('',#862,4.00000000000001);
#53=CIRCLE('',#864,1.00000000000001);
#54=CIRCLE('',#865,1.00000000000001);
#55=CIRCLE('',#866,1.00000000000001);
#56=CIRCLE('',#867,1.00000000000001);
#57=CIRCLE('',#869,7.);
#58=CIRCLE('',#872,7.00000000000001);
#59=CIRCLE('',#875,7.00000000000002);
#60=CIRCLE('',#878,7.00000000000001);
#61=CONICAL_SURFACE('',#829,3.25000000000001,0.358770670270571);
#62=CONICAL_SURFACE('',#834,3.25,0.358770670270573);
#63=CONICAL_SURFACE('',#837,3.25000000000001,0.358770670270571);
#64=CONICAL_SURFACE('',#842,3.25000000000001,0.358770670270571);
#65=FACE_OUTER_BOUND('',#109,.T.);
#66=FACE_OUTER_BOUND('',#110,.T.);
#67=FACE_OUTER_BOUND('',#111,.T.);
#68=FACE_OUTER_BOUND('',#112,.T.);
#69=FACE_OUTER_BOUND('',#113,.T.);
#70=FACE_OUTER_BOUND('',#114,.T.);
#71=FACE_OUTER_BOUND('',#115,.T.);
#72=FACE_OUTER_BOUND('',#116,.T.);
#73=FACE_OUTER_BOUND('',#117,.T.);
#74=FACE_OUTER_BOUND('',#118,.T.);
#75=FACE_OUTER_BOUND('',#119,.T.);
#76=FACE_OUTER_BOUND('',#120,.T.);
#77=FACE_OUTER_BOUND('',#121,.T.);
#78=FACE_OUTER_BOUND('',#122,.T.);
#79=FACE_OUTER_BOUND('',#123,.T.);
#80=FACE_OUTER_BOUND('',#124,.T.);
#81=FACE_OUTER_BOUND('',#125,.T.);
#82=FACE_OUTER_BOUND('',#126,.T.);
#83=FACE_OUTER_BOUND('',#127,.T.);
#84=FACE_OUTER_BOUND('',#128,.T.);
#85=FACE_OUTER_BOUND('',#129,.T.);
#86=FACE_OUTER_BOUND('',#131,.T.);
#87=FACE_OUTER_BOUND('',#133,.T.);
#88=FACE_OUTER_BOUND('',#136,.T.);
#89=FACE_OUTER_BOUND('',#137,.T.);
#90=FACE_OUTER_BOUND('',#138,.T.);
#91=FACE_OUTER_BOUND('',#139,.T.);
#92=FACE_OUTER_BOUND('',#140,.T.);
#93=FACE_OUTER_BOUND('',#141,.T.);
#94=FACE_OUTER_BOUND('',#142,.T.);
#95=FACE_OUTER_BOUND('',#143,.T.);
#96=FACE_OUTER_BOUND('',#144,.T.);
#97=FACE_OUTER_BOUND('',#147,.T.);
#98=FACE_OUTER_BOUND('',#148,.T.);
#99=FACE_OUTER_BOUND('',#149,.T.);
#100=FACE_OUTER_BOUND('',#150,.T.);
#101=FACE_OUTER_BOUND('',#151,.T.);
#102=FACE_OUTER_BOUND('',#152,.T.);
#103=FACE_OUTER_BOUND('',#153,.T.);
#104=FACE_OUTER_BOUND('',#154,.T.);
#105=FACE_OUTER_BOUND('',#155,.T.);
#106=FACE_OUTER_BOUND('',#156,.T.);
#107=FACE_OUTER_BOUND('',#157,.T.);
#108=FACE_OUTER_BOUND('',#158,.T.);
#109=EDGE_LOOP('',(#511,#512,#513,#514));
#110=EDGE_LOOP('',(#515,#516,#517,#518));
#111=EDGE_LOOP('',(#519,#520,#521,#522));
#112=EDGE_LOOP('',(#523,#524,#525,#526));
#113=EDGE_LOOP('',(#527,#528,#529,#530));
#114=EDGE_LOOP('',(#531,#532,#533,#534));
#115=EDGE_LOOP('',(#535,#536,#537,#538));
#116=EDGE_LOOP('',(#539,#540,#541,#542));
#117=EDGE_LOOP('',(#543,#544,#545,#546));
#118=EDGE_LOOP('',(#547,#548,#549,#550));
#119=EDGE_LOOP('',(#551,#552,#553,#554));
#120=EDGE_LOOP('',(#555,#556,#557,#558));
#121=EDGE_LOOP('',(#559,#560,#561,#562));
#122=EDGE_LOOP('',(#563,#564,#565,#566));
#123=EDGE_LOOP('',(#567,#568,#569,#570));
#124=EDGE_LOOP('',(#571,#572,#573,#574));
#125=EDGE_LOOP('',(#575,#576,#577,#578));
#126=EDGE_LOOP('',(#579,#580,#581,#582));
#127=EDGE_LOOP('',(#583,#584,#585,#586));
#128=EDGE_LOOP('',(#587,#588,#589,#590));
#129=EDGE_LOOP('',(#591,#592,#593,#594,#595,#596,#597,#598));
#130=EDGE_LOOP('',(#599,#600,#601,#602,#603,#604,#605,#606));
#131=EDGE_LOOP('',(#607,#608,#609,#610,#611,#612,#613,#614));
#132=EDGE_LOOP('',(#615,#616,#617,#618,#619,#620,#621,#622));
#133=EDGE_LOOP('',(#623,#624,#625,#626,#627,#628,#629,#630));
#134=EDGE_LOOP('',(#631,#632,#633,#634));
#135=EDGE_LOOP('',(#635,#636,#637,#638));
#136=EDGE_LOOP('',(#639,#640,#641,#642));
#137=EDGE_LOOP('',(#643,#644,#645,#646));
#138=EDGE_LOOP('',(#647,#648,#649,#650));
#139=EDGE_LOOP('',(#651,#652,#653,#654));
#140=EDGE_LOOP('',(#655,#656,#657,#658));
#141=EDGE_LOOP('',(#659,#660,#661,#662));
#142=EDGE_LOOP('',(#663,#664,#665,#666));
#143=EDGE_LOOP('',(#667,#668,#669,#670));
#144=EDGE_LOOP('',(#671,#672,#673,#674,#675,#676,#677,#678));
#145=EDGE_LOOP('',(#679,#680,#681,#682));
#146=EDGE_LOOP('',(#683,#684,#685,#686));
#147=EDGE_LOOP('',(#687,#688,#689,#690));
#148=EDGE_LOOP('',(#691,#692,#693,#694));
#149=EDGE_LOOP('',(#695,#696,#697,#698));
#150=EDGE_LOOP('',(#699,#700,#701,#702));
#151=EDGE_LOOP('',(#703,#704,#705,#706));
#152=EDGE_LOOP('',(#707,#708,#709,#710));
#153=EDGE_LOOP('',(#711,#712,#713,#714));
#154=EDGE_LOOP('',(#715,#716,#717,#718));
#155=EDGE_LOOP('',(#719,#720,#721,#722));
#156=EDGE_LOOP('',(#723,#724,#725,#726));
#157=EDGE_LOOP('',(#727,#728,#729,#730));
#158=EDGE_LOOP('',(#731,#732,#733,#734));
#159=LINE('',#1127,#243);
#160=LINE('',#1129,#244);
#161=LINE('',#1131,#245);
#162=LINE('',#1132,#246);
#163=LINE('',#1135,#247);
#164=LINE('',#1137,#248);
#165=LINE('',#1138,#249);
#166=LINE('',#1141,#250);
#167=LINE('',#1143,#251);
#168=LINE('',#1144,#252);
#169=LINE('',#1146,#253);
#170=LINE('',#1147,#254);
#171=LINE('',#1151,#255);
#172=LINE('',#1153,#256);
#173=LINE('',#1155,#257);
#174=LINE('',#1156,#258);
#175=LINE('',#1159,#259);
#176=LINE('',#1161,#260);
#177=LINE('',#1162,#261);
#178=LINE('',#1165,#262);
#179=LINE('',#1167,#263);
#180=LINE('',#1168,#264);
#181=LINE('',#1170,#265);
#182=LINE('',#1171,#266);
#183=LINE('',#1175,#267);
#184=LINE('',#1179,#268);
#185=LINE('',#1183,#269);
#186=LINE('',#1185,#270);
#187=LINE('',#1186,#271);
#188=LINE('',#1190,#272);
#189=LINE('',#1191,#273);
#190=LINE('',#1192,#274);
#191=LINE('',#1197,#275);
#192=LINE('',#1202,#276);
#193=LINE('',#1207,#277);
#194=LINE('',#1209,#278);
#195=LINE('',#1210,#279);
#196=LINE('',#1214,#280);
#197=LINE('',#1215,#281);
#198=LINE('',#1216,#282);
#199=LINE('',#1222,#283);
#200=LINE('',#1224,#284);
#201=LINE('',#1225,#285);
#202=LINE('',#1228,#286);
#203=LINE('',#1232,#287);
#204=LINE('',#1233,#288);
#205=LINE('',#1236,#289);
#206=LINE('',#1243,#290);
#207=LINE('',#1247,#291);
#208=LINE('',#1251,#292);
#209=LINE('',#1254,#293);
#210=LINE('',#1258,#294);
#211=LINE('',#1262,#295);
#212=LINE('',#1266,#296);
#213=LINE('',#1270,#297);
#214=LINE('',#1273,#298);
#215=LINE('',#1277,#299);
#216=LINE('',#1282,#300);
#217=LINE('',#1286,#301);
#218=LINE('',#1290,#302);
#219=LINE('',#1294,#303);
#220=LINE('',#1298,#304);
#221=LINE('',#1301,#305);
#222=LINE('',#1304,#306);
#223=LINE('',#1305,#307);
#224=LINE('',#1309,#308);
#225=LINE('',#1312,#309);
#226=LINE('',#1313,#310);
#227=LINE('',#1317,#311);
#228=LINE('',#1320,#312);
#229=LINE('',#1321,#313);
#230=LINE('',#1325,#314);
#231=LINE('',#1327,#315);
#232=LINE('',#1330,#316);
#233=LINE('',#1331,#317);
#234=LINE('',#1333,#318);
#235=LINE('',#1335,#319);
#236=LINE('',#1337,#320);
#237=LINE('',#1339,#321);
#238=LINE('',#1341,#322);
#239=LINE('',#1343,#323);
#240=LINE('',#1346,#324);
#241=LINE('',#1348,#325);
#242=LINE('',#1350,#326);
#243=VECTOR('',#897,10.);
#244=VECTOR('',#898,10.);
#245=VECTOR('',#899,10.);
#246=VECTOR('',#900,10.);
#247=VECTOR('',#903,10.);
#248=VECTOR('',#904,10.);
#249=VECTOR('',#905,10.);
#250=VECTOR('',#908,10.);
#251=VECTOR('',#909,10.);
#252=VECTOR('',#910,10.);
#253=VECTOR('',#913,10.);
#254=VECTOR('',#914,10.);
#255=VECTOR('',#917,10.);
#256=VECTOR('',#918,10.);
#257=VECTOR('',#919,10.);
#258=VECTOR('',#920,10.);
#259=VECTOR('',#923,10.);
#260=VECTOR('',#924,10.);
#261=VECTOR('',#925,10.);
#262=VECTOR('',#928,10.);
#263=VECTOR('',#929,10.);
#264=VECTOR('',#930,10.);
#265=VECTOR('',#933,10.);
#266=VECTOR('',#934,10.);
#267=VECTOR('',#937,10.);
#268=VECTOR('',#940,10.);
#269=VECTOR('',#945,10.);
#270=VECTOR('',#946,10.);
#271=VECTOR('',#947,10.);
#272=VECTOR('',#950,10.);
#273=VECTOR('',#951,10.);
#274=VECTOR('',#952,10.);
#275=VECTOR('',#957,10.);
#276=VECTOR('',#962,10.);
#277=VECTOR('',#969,10.);
#278=VECTOR('',#970,10.);
#279=VECTOR('',#971,10.);
#280=VECTOR('',#974,10.);
#281=VECTOR('',#975,10.);
#282=VECTOR('',#976,10.);
#283=VECTOR('',#985,10.);
#284=VECTOR('',#986,10.);
#285=VECTOR('',#987,10.);
#286=VECTOR('',#990,10.);
#287=VECTOR('',#995,10.);
#288=VECTOR('',#996,10.);
#289=VECTOR('',#999,10.);
#290=VECTOR('',#1006,10.);
#291=VECTOR('',#1009,10.);
#292=VECTOR('',#1012,10.);
#293=VECTOR('',#1015,10.);
#294=VECTOR('',#1018,10.);
#295=VECTOR('',#1021,10.);
#296=VECTOR('',#1024,10.);
#297=VECTOR('',#1027,10.);
#298=VECTOR('',#1030,10.);
#299=VECTOR('',#1033,10.);
#300=VECTOR('',#1038,10.);
#301=VECTOR('',#1041,10.);
#302=VECTOR('',#1044,10.);
#303=VECTOR('',#1047,10.);
#304=VECTOR('',#1052,10.);
#305=VECTOR('',#1055,10.);
#306=VECTOR('',#1058,10.);
#307=VECTOR('',#1059,10.);
#308=VECTOR('',#1064,10.);
#309=VECTOR('',#1067,10.);
#310=VECTOR('',#1068,10.);
#311=VECTOR('',#1073,10.);
#312=VECTOR('',#1076,10.);
#313=VECTOR('',#1077,10.);
#314=VECTOR('',#1082,10.);
#315=VECTOR('',#1085,10.);
#316=VECTOR('',#1090,10.);
#317=VECTOR('',#1091,10.);
#318=VECTOR('',#1094,10.);
#319=VECTOR('',#1097,10.);
#320=VECTOR('',#1100,10.);
#321=VECTOR('',#1103,10.);
#322=VECTOR('',#1106,10.);
#323=VECTOR('',#1109,10.);
#324=VECTOR('',#1114,10.);
#325=VECTOR('',#1117,10.);
#326=VECTOR('',#1120,10.);
#327=VERTEX_POINT('',#1125);
#328=VERTEX_POINT('',#1126);
#329=VERTEX_POINT('',#1128);
#330=VERTEX_POINT('',#1130);
#331=VERTEX_POINT('',#1134);
#332=VERTEX_POINT('',#1136);
#333=VERTEX_POINT('',#1140);
#334=VERTEX_POINT('',#1142);
#335=VERTEX_POINT('',#1149);
#336=VERTEX_POINT('',#1150);
#337=VERTEX_POINT('',#1152);
#338=VERTEX_POINT('',#1154);
#339=VERTEX_POINT('',#1158);
#340=VERTEX_POINT('',#1160);
#341=VERTEX_POINT('',#1164);
#342=VERTEX_POINT('',#1166);
#343=VERTEX_POINT('',#1173);
#344=VERTEX_POINT('',#1174);
#345=VERTEX_POINT('',#1176);
#346=VERTEX_POINT('',#1178);
#347=VERTEX_POINT('',#1182);
#348=VERTEX_POINT('',#1184);
#349=VERTEX_POINT('',#1188);
#350=VERTEX_POINT('',#1189);
#351=VERTEX_POINT('',#1194);
#352=VERTEX_POINT('',#1196);
#353=VERTEX_POINT('',#1200);
#354=VERTEX_POINT('',#1201);
#355=VERTEX_POINT('',#1206);
#356=VERTEX_POINT('',#1208);
#357=VERTEX_POINT('',#1212);
#358=VERTEX_POINT('',#1213);
#359=VERTEX_POINT('',#1221);
#360=VERTEX_POINT('',#1223);
#361=VERTEX_POINT('',#1227);
#362=VERTEX_POINT('',#1231);
#363=VERTEX_POINT('',#1235);
#364=VERTEX_POINT('',#1239);
#365=VERTEX_POINT('',#1240);
#366=VERTEX_POINT('',#1242);
#367=VERTEX_POINT('',#1244);
#368=VERTEX_POINT('',#1246);
#369=VERTEX_POINT('',#1248);
#370=VERTEX_POINT('',#1250);
#371=VERTEX_POINT('',#1252);
#372=VERTEX_POINT('',#1256);
#373=VERTEX_POINT('',#1257);
#374=VERTEX_POINT('',#1259);
#375=VERTEX_POINT('',#1261);
#376=VERTEX_POINT('',#1263);
#377=VERTEX_POINT('',#1265);
#378=VERTEX_POINT('',#1267);
#379=VERTEX_POINT('',#1269);
#380=VERTEX_POINT('',#1272);
#381=VERTEX_POINT('',#1274);
#382=VERTEX_POINT('',#1276);
#383=VERTEX_POINT('',#1280);
#384=VERTEX_POINT('',#1281);
#385=VERTEX_POINT('',#1283);
#386=VERTEX_POINT('',#1285);
#387=VERTEX_POINT('',#1287);
#388=VERTEX_POINT('',#1289);
#389=VERTEX_POINT('',#1291);
#390=VERTEX_POINT('',#1293);
#391=VERTEX_POINT('',#1297);
#392=VERTEX_POINT('',#1299);
#393=VERTEX_POINT('',#1303);
#394=VERTEX_POINT('',#1307);
#395=VERTEX_POINT('',#1311);
#396=VERTEX_POINT('',#1315);
#397=VERTEX_POINT('',#1319);
#398=VERTEX_POINT('',#1323);
#399=EDGE_CURVE('',#327,#328,#159,.T.);
#400=EDGE_CURVE('',#327,#329,#160,.T.);
#401=EDGE_CURVE('',#330,#329,#161,.T.);
#402=EDGE_CURVE('',#328,#330,#162,.T.);
#403=EDGE_CURVE('',#331,#327,#163,.T.);
#404=EDGE_CURVE('',#331,#332,#164,.T.);
#405=EDGE_CURVE('',#329,#332,#165,.T.);
#406=EDGE_CURVE('',#333,#331,#166,.T.);
#407=EDGE_CURVE('',#333,#334,#167,.T.);
#408=EDGE_CURVE('',#332,#334,#168,.T.);
#409=EDGE_CURVE('',#328,#333,#169,.T.);
#410=EDGE_CURVE('',#334,#330,#170,.T.);
#411=EDGE_CURVE('',#335,#336,#171,.T.);
#412=EDGE_CURVE('',#337,#335,#172,.T.);
#413=EDGE_CURVE('',#338,#337,#173,.T.);
#414=EDGE_CURVE('',#338,#336,#174,.T.);
#415=EDGE_CURVE('',#336,#339,#175,.T.);
#416=EDGE_CURVE('',#340,#338,#176,.T.);
#417=EDGE_CURVE('',#340,#339,#177,.T.);
#418=EDGE_CURVE('',#339,#341,#178,.T.);
#419=EDGE_CURVE('',#342,#340,#179,.T.);
#420=EDGE_CURVE('',#342,#341,#180,.T.);
#421=EDGE_CURVE('',#341,#335,#181,.T.);
#422=EDGE_CURVE('',#337,#342,#182,.T.);
#423=EDGE_CURVE('',#343,#344,#183,.T.);
#424=EDGE_CURVE('',#344,#345,#33,.T.);
#425=EDGE_CURVE('',#345,#346,#184,.T.);
#426=EDGE_CURVE('',#346,#343,#34,.T.);
#427=EDGE_CURVE('',#345,#347,#185,.T.);
#428=EDGE_CURVE('',#347,#348,#186,.T.);
#429=EDGE_CURVE('',#348,#346,#187,.T.);
#430=EDGE_CURVE('',#349,#350,#188,.T.);
#431=EDGE_CURVE('',#350,#344,#189,.T.);
#432=EDGE_CURVE('',#343,#349,#190,.T.);
#433=EDGE_CURVE('',#347,#351,#35,.T.);
#434=EDGE_CURVE('',#351,#352,#191,.T.);
#435=EDGE_CURVE('',#352,#348,#36,.T.);
#436=EDGE_CURVE('',#353,#354,#192,.T.);
#437=EDGE_CURVE('',#354,#350,#37,.T.);
#438=EDGE_CURVE('',#349,#353,#38,.T.);
#439=EDGE_CURVE('',#351,#355,#193,.T.);
#440=EDGE_CURVE('',#355,#356,#194,.T.);
#441=EDGE_CURVE('',#356,#352,#195,.T.);
#442=EDGE_CURVE('',#357,#358,#196,.T.);
#443=EDGE_CURVE('',#358,#354,#197,.T.);
#444=EDGE_CURVE('',#353,#357,#198,.T.);
#445=EDGE_CURVE('',#355,#358,#39,.T.);
#446=EDGE_CURVE('',#357,#356,#40,.T.);
#447=EDGE_CURVE('',#359,#353,#199,.T.);
#448=EDGE_CURVE('',#360,#359,#200,.T.);
#449=EDGE_CURVE('',#360,#357,#201,.T.);
#450=EDGE_CURVE('',#361,#349,#202,.T.);
#451=EDGE_CURVE('',#359,#361,#41,.T.);
#452=EDGE_CURVE('',#362,#343,#203,.T.);
#453=EDGE_CURVE('',#361,#362,#204,.T.);
#454=EDGE_CURVE('',#363,#346,#205,.T.);
#455=EDGE_CURVE('',#362,#363,#42,.T.);
#456=EDGE_CURVE('',#364,#365,#43,.T.);
#457=EDGE_CURVE('',#365,#366,#206,.T.);
#458=EDGE_CURVE('',#366,#367,#44,.T.);
#459=EDGE_CURVE('',#367,#368,#207,.T.);
#460=EDGE_CURVE('',#368,#369,#45,.T.);
#461=EDGE_CURVE('',#369,#370,#208,.T.);
#462=EDGE_CURVE('',#370,#371,#46,.T.);
#463=EDGE_CURVE('',#371,#364,#209,.T.);
#464=EDGE_CURVE('',#372,#373,#210,.T.);
#465=EDGE_CURVE('',#374,#372,#47,.T.);
#466=EDGE_CURVE('',#375,#374,#211,.T.);
#467=EDGE_CURVE('',#376,#375,#48,.T.);
#468=EDGE_CURVE('',#377,#376,#212,.T.);
#469=EDGE_CURVE('',#378,#377,#49,.T.);
#470=EDGE_CURVE('',#379,#378,#213,.T.);
#471=EDGE_CURVE('',#373,#379,#50,.T.);
#472=EDGE_CURVE('',#363,#380,#214,.T.);
#473=EDGE_CURVE('',#380,#381,#51,.T.);
#474=EDGE_CURVE('',#381,#382,#215,.T.);
#475=EDGE_CURVE('',#382,#360,#52,.T.);
#476=EDGE_CURVE('',#383,#384,#216,.T.);
#477=EDGE_CURVE('',#384,#385,#53,.T.);
#478=EDGE_CURVE('',#385,#386,#217,.T.);
#479=EDGE_CURVE('',#386,#387,#54,.T.);
#480=EDGE_CURVE('',#387,#388,#218,.T.);
#481=EDGE_CURVE('',#388,#389,#55,.T.);
#482=EDGE_CURVE('',#389,#390,#219,.T.);
#483=EDGE_CURVE('',#390,#383,#56,.T.);
#484=EDGE_CURVE('',#372,#391,#220,.T.);
#485=EDGE_CURVE('',#392,#391,#57,.T.);
#486=EDGE_CURVE('',#374,#392,#221,.T.);
#487=EDGE_CURVE('',#393,#392,#222,.T.);
#488=EDGE_CURVE('',#375,#393,#223,.T.);
#489=EDGE_CURVE('',#394,#393,#58,.T.);
#490=EDGE_CURVE('',#376,#394,#224,.T.);
#491=EDGE_CURVE('',#395,#394,#225,.T.);
#492=EDGE_CURVE('',#377,#395,#226,.T.);
#493=EDGE_CURVE('',#396,#395,#59,.T.);
#494=EDGE_CURVE('',#378,#396,#227,.T.);
#495=EDGE_CURVE('',#397,#396,#228,.T.);
#496=EDGE_CURVE('',#379,#397,#229,.T.);
#497=EDGE_CURVE('',#398,#397,#60,.T.);
#498=EDGE_CURVE('',#373,#398,#230,.T.);
#499=EDGE_CURVE('',#391,#398,#231,.T.);
#500=EDGE_CURVE('',#383,#364,#232,.T.);
#501=EDGE_CURVE('',#384,#371,#233,.T.);
#502=EDGE_CURVE('',#385,#370,#234,.T.);
#503=EDGE_CURVE('',#386,#369,#235,.T.);
#504=EDGE_CURVE('',#387,#368,#236,.T.);
#505=EDGE_CURVE('',#388,#367,#237,.T.);
#506=EDGE_CURVE('',#389,#366,#238,.T.);
#507=EDGE_CURVE('',#390,#365,#239,.T.);
#508=EDGE_CURVE('',#380,#348,#240,.T.);
#509=EDGE_CURVE('',#381,#352,#241,.T.);
#510=EDGE_CURVE('',#382,#356,#242,.T.);
#511=ORIENTED_EDGE('',*,*,#399,.F.);
#512=ORIENTED_EDGE('',*,*,#400,.T.);
#513=ORIENTED_EDGE('',*,*,#401,.F.);
#514=ORIENTED_EDGE('',*,*,#402,.F.);
#515=ORIENTED_EDGE('',*,*,#403,.F.);
#516=ORIENTED_EDGE('',*,*,#404,.T.);
#517=ORIENTED_EDGE('',*,*,#405,.F.);
#518=ORIENTED_EDGE('',*,*,#400,.F.);
#519=ORIENTED_EDGE('',*,*,#406,.F.);
#520=ORIENTED_EDGE('',*,*,#407,.T.);
#521=ORIENTED_EDGE('',*,*,#408,.F.);
#522=ORIENTED_EDGE('',*,*,#404,.F.);
#523=ORIENTED_EDGE('',*,*,#409,.F.);
#524=ORIENTED_EDGE('',*,*,#402,.T.);
#525=ORIENTED_EDGE('',*,*,#410,.F.);
#526=ORIENTED_EDGE('',*,*,#407,.F.);
#527=ORIENTED_EDGE('',*,*,#411,.F.);
#528=ORIENTED_EDGE('',*,*,#412,.F.);
#529=ORIENTED_EDGE('',*,*,#413,.F.);
#530=ORIENTED_EDGE('',*,*,#414,.T.);
#531=ORIENTED_EDGE('',*,*,#415,.F.);
#532=ORIENTED_EDGE('',*,*,#414,.F.);
#533=ORIENTED_EDGE('',*,*,#416,.F.);
#534=ORIENTED_EDGE('',*,*,#417,.T.);
#535=ORIENTED_EDGE('',*,*,#418,.F.);
#536=ORIENTED_EDGE('',*,*,#417,.F.);
#537=ORIENTED_EDGE('',*,*,#419,.F.);
#538=ORIENTED_EDGE('',*,*,#420,.T.);
#539=ORIENTED_EDGE('',*,*,#421,.F.);
#540=ORIENTED_EDGE('',*,*,#420,.F.);
#541=ORIENTED_EDGE('',*,*,#422,.F.);
#542=ORIENTED_EDGE('',*,*,#412,.T.);
#543=ORIENTED_EDGE('',*,*,#423,.T.);
#544=ORIENTED_EDGE('',*,*,#424,.T.);
#545=ORIENTED_EDGE('',*,*,#425,.T.);
#546=ORIENTED_EDGE('',*,*,#426,.T.);
#547=ORIENTED_EDGE('',*,*,#425,.F.);
#548=ORIENTED_EDGE('',*,*,#427,.T.);
#549=ORIENTED_EDGE('',*,*,#428,.T.);
#550=ORIENTED_EDGE('',*,*,#429,.T.);
#551=ORIENTED_EDGE('',*,*,#430,.T.);
#552=ORIENTED_EDGE('',*,*,#431,.T.);
#553=ORIENTED_EDGE('',*,*,#423,.F.);
#554=ORIENTED_EDGE('',*,*,#432,.T.);
#555=ORIENTED_EDGE('',*,*,#428,.F.);
#556=ORIENTED_EDGE('',*,*,#433,.T.);
#557=ORIENTED_EDGE('',*,*,#434,.T.);
#558=ORIENTED_EDGE('',*,*,#435,.T.);
#559=ORIENTED_EDGE('',*,*,#436,.T.);
#560=ORIENTED_EDGE('',*,*,#437,.T.);
#561=ORIENTED_EDGE('',*,*,#430,.F.);
#562=ORIENTED_EDGE('',*,*,#438,.T.);
#563=ORIENTED_EDGE('',*,*,#434,.F.);
#564=ORIENTED_EDGE('',*,*,#439,.T.);
#565=ORIENTED_EDGE('',*,*,#440,.T.);
#566=ORIENTED_EDGE('',*,*,#441,.T.);
#567=ORIENTED_EDGE('',*,*,#442,.T.);
#568=ORIENTED_EDGE('',*,*,#443,.T.);
#569=ORIENTED_EDGE('',*,*,#436,.F.);
#570=ORIENTED_EDGE('',*,*,#444,.T.);
#571=ORIENTED_EDGE('',*,*,#440,.F.);
#572=ORIENTED_EDGE('',*,*,#445,.T.);
#573=ORIENTED_EDGE('',*,*,#442,.F.);
#574=ORIENTED_EDGE('',*,*,#446,.T.);
#575=ORIENTED_EDGE('',*,*,#444,.F.);
#576=ORIENTED_EDGE('',*,*,#447,.F.);
#577=ORIENTED_EDGE('',*,*,#448,.F.);
#578=ORIENTED_EDGE('',*,*,#449,.T.);
#579=ORIENTED_EDGE('',*,*,#438,.F.);
#580=ORIENTED_EDGE('',*,*,#450,.F.);
#581=ORIENTED_EDGE('',*,*,#451,.F.);
#582=ORIENTED_EDGE('',*,*,#447,.T.);
#583=ORIENTED_EDGE('',*,*,#432,.F.);
#584=ORIENTED_EDGE('',*,*,#452,.F.);
#585=ORIENTED_EDGE('',*,*,#453,.F.);
#586=ORIENTED_EDGE('',*,*,#450,.T.);
#587=ORIENTED_EDGE('',*,*,#426,.F.);
#588=ORIENTED_EDGE('',*,*,#454,.F.);
#589=ORIENTED_EDGE('',*,*,#455,.F.);
#590=ORIENTED_EDGE('',*,*,#452,.T.);
#591=ORIENTED_EDGE('',*,*,#424,.F.);
#592=ORIENTED_EDGE('',*,*,#431,.F.);
#593=ORIENTED_EDGE('',*,*,#437,.F.);
#594=ORIENTED_EDGE('',*,*,#443,.F.);
#595=ORIENTED_EDGE('',*,*,#445,.F.);
#596=ORIENTED_EDGE('',*,*,#439,.F.);
#597=ORIENTED_EDGE('',*,*,#433,.F.);
#598=ORIENTED_EDGE('',*,*,#427,.F.);
#599=ORIENTED_EDGE('',*,*,#456,.T.);
#600=ORIENTED_EDGE('',*,*,#457,.T.);
#601=ORIENTED_EDGE('',*,*,#458,.T.);
#602=ORIENTED_EDGE('',*,*,#459,.T.);
#603=ORIENTED_EDGE('',*,*,#460,.T.);
#604=ORIENTED_EDGE('',*,*,#461,.T.);
#605=ORIENTED_EDGE('',*,*,#462,.T.);
#606=ORIENTED_EDGE('',*,*,#463,.T.);
#607=ORIENTED_EDGE('',*,*,#464,.F.);
#608=ORIENTED_EDGE('',*,*,#465,.F.);
#609=ORIENTED_EDGE('',*,*,#466,.F.);
#610=ORIENTED_EDGE('',*,*,#467,.F.);
#611=ORIENTED_EDGE('',*,*,#468,.F.);
#612=ORIENTED_EDGE('',*,*,#469,.F.);
#613=ORIENTED_EDGE('',*,*,#470,.F.);
#614=ORIENTED_EDGE('',*,*,#471,.F.);
#615=ORIENTED_EDGE('',*,*,#455,.T.);
#616=ORIENTED_EDGE('',*,*,#472,.T.);
#617=ORIENTED_EDGE('',*,*,#473,.T.);
#618=ORIENTED_EDGE('',*,*,#474,.T.);
#619=ORIENTED_EDGE('',*,*,#475,.T.);
#620=ORIENTED_EDGE('',*,*,#448,.T.);
#621=ORIENTED_EDGE('',*,*,#451,.T.);
#622=ORIENTED_EDGE('',*,*,#453,.T.);
#623=ORIENTED_EDGE('',*,*,#476,.T.);
#624=ORIENTED_EDGE('',*,*,#477,.T.);
#625=ORIENTED_EDGE('',*,*,#478,.T.);
#626=ORIENTED_EDGE('',*,*,#479,.T.);
#627=ORIENTED_EDGE('',*,*,#480,.T.);
#628=ORIENTED_EDGE('',*,*,#481,.T.);
#629=ORIENTED_EDGE('',*,*,#482,.T.);
#630=ORIENTED_EDGE('',*,*,#483,.T.);
#631=ORIENTED_EDGE('',*,*,#401,.T.);
#632=ORIENTED_EDGE('',*,*,#405,.T.);
#633=ORIENTED_EDGE('',*,*,#408,.T.);
#634=ORIENTED_EDGE('',*,*,#410,.T.);
#635=ORIENTED_EDGE('',*,*,#418,.T.);
#636=ORIENTED_EDGE('',*,*,#421,.T.);
#637=ORIENTED_EDGE('',*,*,#411,.T.);
#638=ORIENTED_EDGE('',*,*,#415,.T.);
#639=ORIENTED_EDGE('',*,*,#465,.T.);
#640=ORIENTED_EDGE('',*,*,#484,.T.);
#641=ORIENTED_EDGE('',*,*,#485,.F.);
#642=ORIENTED_EDGE('',*,*,#486,.F.);
#643=ORIENTED_EDGE('',*,*,#466,.T.);
#644=ORIENTED_EDGE('',*,*,#486,.T.);
#645=ORIENTED_EDGE('',*,*,#487,.F.);
#646=ORIENTED_EDGE('',*,*,#488,.F.);
#647=ORIENTED_EDGE('',*,*,#467,.T.);
#648=ORIENTED_EDGE('',*,*,#488,.T.);
#649=ORIENTED_EDGE('',*,*,#489,.F.);
#650=ORIENTED_EDGE('',*,*,#490,.F.);
#651=ORIENTED_EDGE('',*,*,#468,.T.);
#652=ORIENTED_EDGE('',*,*,#490,.T.);
#653=ORIENTED_EDGE('',*,*,#491,.F.);
#654=ORIENTED_EDGE('',*,*,#492,.F.);
#655=ORIENTED_EDGE('',*,*,#469,.T.);
#656=ORIENTED_EDGE('',*,*,#492,.T.);
#657=ORIENTED_EDGE('',*,*,#493,.F.);
#658=ORIENTED_EDGE('',*,*,#494,.F.);
#659=ORIENTED_EDGE('',*,*,#470,.T.);
#660=ORIENTED_EDGE('',*,*,#494,.T.);
#661=ORIENTED_EDGE('',*,*,#495,.F.);
#662=ORIENTED_EDGE('',*,*,#496,.F.);
#663=ORIENTED_EDGE('',*,*,#471,.T.);
#664=ORIENTED_EDGE('',*,*,#496,.T.);
#665=ORIENTED_EDGE('',*,*,#497,.F.);
#666=ORIENTED_EDGE('',*,*,#498,.F.);
#667=ORIENTED_EDGE('',*,*,#464,.T.);
#668=ORIENTED_EDGE('',*,*,#498,.T.);
#669=ORIENTED_EDGE('',*,*,#499,.F.);
#670=ORIENTED_EDGE('',*,*,#484,.F.);
#671=ORIENTED_EDGE('',*,*,#499,.T.);
#672=ORIENTED_EDGE('',*,*,#497,.T.);
#673=ORIENTED_EDGE('',*,*,#495,.T.);
#674=ORIENTED_EDGE('',*,*,#493,.T.);
#675=ORIENTED_EDGE('',*,*,#491,.T.);
#676=ORIENTED_EDGE('',*,*,#489,.T.);
#677=ORIENTED_EDGE('',*,*,#487,.T.);
#678=ORIENTED_EDGE('',*,*,#485,.T.);
#679=ORIENTED_EDGE('',*,*,#399,.T.);
#680=ORIENTED_EDGE('',*,*,#409,.T.);
#681=ORIENTED_EDGE('',*,*,#406,.T.);
#682=ORIENTED_EDGE('',*,*,#403,.T.);
#683=ORIENTED_EDGE('',*,*,#419,.T.);
#684=ORIENTED_EDGE('',*,*,#416,.T.);
#685=ORIENTED_EDGE('',*,*,#413,.T.);
#686=ORIENTED_EDGE('',*,*,#422,.T.);
#687=ORIENTED_EDGE('',*,*,#476,.F.);
#688=ORIENTED_EDGE('',*,*,#500,.T.);
#689=ORIENTED_EDGE('',*,*,#463,.F.);
#690=ORIENTED_EDGE('',*,*,#501,.F.);
#691=ORIENTED_EDGE('',*,*,#477,.F.);
#692=ORIENTED_EDGE('',*,*,#501,.T.);
#693=ORIENTED_EDGE('',*,*,#462,.F.);
#694=ORIENTED_EDGE('',*,*,#502,.F.);
#695=ORIENTED_EDGE('',*,*,#478,.F.);
#696=ORIENTED_EDGE('',*,*,#502,.T.);
#697=ORIENTED_EDGE('',*,*,#461,.F.);
#698=ORIENTED_EDGE('',*,*,#503,.F.);
#699=ORIENTED_EDGE('',*,*,#479,.F.);
#700=ORIENTED_EDGE('',*,*,#503,.T.);
#701=ORIENTED_EDGE('',*,*,#460,.F.);
#702=ORIENTED_EDGE('',*,*,#504,.F.);
#703=ORIENTED_EDGE('',*,*,#480,.F.);
#704=ORIENTED_EDGE('',*,*,#504,.T.);
#705=ORIENTED_EDGE('',*,*,#459,.F.);
#706=ORIENTED_EDGE('',*,*,#505,.F.);
#707=ORIENTED_EDGE('',*,*,#481,.F.);
#708=ORIENTED_EDGE('',*,*,#505,.T.);
#709=ORIENTED_EDGE('',*,*,#458,.F.);
#710=ORIENTED_EDGE('',*,*,#506,.F.);
#711=ORIENTED_EDGE('',*,*,#482,.F.);
#712=ORIENTED_EDGE('',*,*,#506,.T.);
#713=ORIENTED_EDGE('',*,*,#457,.F.);
#714=ORIENTED_EDGE('',*,*,#507,.F.);
#715=ORIENTED_EDGE('',*,*,#483,.F.);
#716=ORIENTED_EDGE('',*,*,#507,.T.);
#717=ORIENTED_EDGE('',*,*,#456,.F.);
#718=ORIENTED_EDGE('',*,*,#500,.F.);
#719=ORIENTED_EDGE('',*,*,#429,.F.);
#720=ORIENTED_EDGE('',*,*,#508,.F.);
#721=ORIENTED_EDGE('',*,*,#472,.F.);
#722=ORIENTED_EDGE('',*,*,#454,.T.);
#723=ORIENTED_EDGE('',*,*,#435,.F.);
#724=ORIENTED_EDGE('',*,*,#509,.F.);
#725=ORIENTED_EDGE('',*,*,#473,.F.);
#726=ORIENTED_EDGE('',*,*,#508,.T.);
#727=ORIENTED_EDGE('',*,*,#441,.F.);
#728=ORIENTED_EDGE('',*,*,#510,.F.);
#729=ORIENTED_EDGE('',*,*,#474,.F.);
#730=ORIENTED_EDGE('',*,*,#509,.T.);
#731=ORIENTED_EDGE('',*,*,#446,.F.);
#732=ORIENTED_EDGE('',*,*,#449,.F.);
#733=ORIENTED_EDGE('',*,*,#475,.F.);
#734=ORIENTED_EDGE('',*,*,#510,.T.);
#735=PLANE('',#821);
#736=PLANE('',#822);
#737=PLANE('',#823);
#738=PLANE('',#824);
#739=PLANE('',#825);
#740=PLANE('',#826);
#741=PLANE('',#827);
#742=PLANE('',#828);
#743=PLANE('',#832);
#744=PLANE('',#833);
#745=PLANE('',#840);
#746=PLANE('',#841);
#747=PLANE('',#845);
#748=PLANE('',#848);
#749=PLANE('',#851);
#750=PLANE('',#856);
#751=PLANE('',#863);
#752=PLANE('',#870);
#753=PLANE('',#873);
#754=PLANE('',#876);
#755=PLANE('',#879);
#756=PLANE('',#880);
#757=PLANE('',#881);
#758=PLANE('',#883);
#759=PLANE('',#885);
#760=PLANE('',#887);
#761=PLANE('',#889);
#762=PLANE('',#891);
#763=ADVANCED_FACE('',(#65),#735,.F.);
#764=ADVANCED_FACE('',(#66),#736,.F.);
#765=ADVANCED_FACE('',(#67),#737,.F.);
#766=ADVANCED_FACE('',(#68),#738,.F.);
#767=ADVANCED_FACE('',(#69),#739,.F.);
#768=ADVANCED_FACE('',(#70),#740,.F.);
#769=ADVANCED_FACE('',(#71),#741,.F.);
#770=ADVANCED_FACE('',(#72),#742,.F.);
#771=ADVANCED_FACE('',(#73),#61,.T.);
#772=ADVANCED_FACE('',(#74),#743,.T.);
#773=ADVANCED_FACE('',(#75),#744,.T.);
#774=ADVANCED_FACE('',(#76),#62,.T.);
#775=ADVANCED_FACE('',(#77),#63,.T.);
#776=ADVANCED_FACE('',(#78),#745,.T.);
#777=ADVANCED_FACE('',(#79),#746,.T.);
#778=ADVANCED_FACE('',(#80),#64,.T.);
#779=ADVANCED_FACE('',(#81),#747,.T.);
#780=ADVANCED_FACE('',(#82),#21,.T.);
#781=ADVANCED_FACE('',(#83),#748,.T.);
#782=ADVANCED_FACE('',(#84),#22,.T.);
#783=ADVANCED_FACE('',(#85,#15),#749,.F.);
#784=ADVANCED_FACE('',(#86,#16),#750,.F.);
#785=ADVANCED_FACE('',(#87,#17,#18),#751,.F.);
#786=ADVANCED_FACE('',(#88),#23,.T.);
#787=ADVANCED_FACE('',(#89),#752,.T.);
#788=ADVANCED_FACE('',(#90),#24,.T.);
#789=ADVANCED_FACE('',(#91),#753,.T.);
#790=ADVANCED_FACE('',(#92),#25,.T.);
#791=ADVANCED_FACE('',(#93),#754,.T.);
#792=ADVANCED_FACE('',(#94),#26,.T.);
#793=ADVANCED_FACE('',(#95),#755,.T.);
#794=ADVANCED_FACE('',(#96,#19,#20),#756,.T.);
#795=ADVANCED_FACE('',(#97),#757,.T.);
#796=ADVANCED_FACE('',(#98),#27,.F.);
#797=ADVANCED_FACE('',(#99),#758,.T.);
#798=ADVANCED_FACE('',(#100),#28,.F.);
#799=ADVANCED_FACE('',(#101),#759,.T.);
#800=ADVANCED_FACE('',(#102),#29,.F.);
#801=ADVANCED_FACE('',(#103),#760,.T.);
#802=ADVANCED_FACE('',(#104),#30,.F.);
#803=ADVANCED_FACE('',(#105),#761,.T.);
#804=ADVANCED_FACE('',(#106),#31,.T.);
#805=ADVANCED_FACE('',(#107),#762,.T.);
#806=ADVANCED_FACE('',(#108),#32,.T.);
#807=CLOSED_SHELL('',(#763,#764,#765,#766,#767,#768,#769,#770,#771,#772,
#773,#774,#775,#776,#777,#778,#779,#780,#781,#782,#783,#784,#785,#786,#787,
#788,#789,#790,#791,#792,#793,#794,#795,#796,#797,#798,#799,#800,#801,#802,
#803,#804,#805,#806));
#808=DERIVED_UNIT_ELEMENT(#810,1.);
#809=DERIVED_UNIT_ELEMENT(#1357,-3.);
#810=(
MASS_UNIT()
NAMED_UNIT(*)
SI_UNIT(.KILO.,.GRAM.)
);
#811=DERIVED_UNIT((#808,#809));
#812=MEASURE_REPRESENTATION_ITEM('density measure',
POSITIVE_RATIO_MEASURE(7850.),#811);
#813=PROPERTY_DEFINITION_REPRESENTATION(#818,#815);
#814=PROPERTY_DEFINITION_REPRESENTATION(#819,#816);
#815=REPRESENTATION('material name',(#817),#1354);
#816=REPRESENTATION('density',(#812),#1354);
#817=DESCRIPTIVE_REPRESENTATION_ITEM('A\X\E7o','A\X\E7o');
#818=PROPERTY_DEFINITION('material property','material name',#1364);
#819=PROPERTY_DEFINITION('material property','density of part',#1364);
#820=AXIS2_PLACEMENT_3D('',#1123,#893,#894);
#821=AXIS2_PLACEMENT_3D('',#1124,#895,#896);
#822=AXIS2_PLACEMENT_3D('',#1133,#901,#902);
#823=AXIS2_PLACEMENT_3D('',#1139,#906,#907);
#824=AXIS2_PLACEMENT_3D('',#1145,#911,#912);
#825=AXIS2_PLACEMENT_3D('',#1148,#915,#916);
#826=AXIS2_PLACEMENT_3D('',#1157,#921,#922);
#827=AXIS2_PLACEMENT_3D('',#1163,#926,#927);
#828=AXIS2_PLACEMENT_3D('',#1169,#931,#932);
#829=AXIS2_PLACEMENT_3D('',#1172,#935,#936);
#830=AXIS2_PLACEMENT_3D('',#1177,#938,#939);
#831=AXIS2_PLACEMENT_3D('',#1180,#941,#942);
#832=AXIS2_PLACEMENT_3D('',#1181,#943,#944);
#833=AXIS2_PLACEMENT_3D('',#1187,#948,#949);
#834=AXIS2_PLACEMENT_3D('',#1193,#953,#954);
#835=AXIS2_PLACEMENT_3D('',#1195,#955,#956);
#836=AXIS2_PLACEMENT_3D('',#1198,#958,#959);
#837=AXIS2_PLACEMENT_3D('',#1199,#960,#961);
#838=AXIS2_PLACEMENT_3D('',#1203,#963,#964);
#839=AXIS2_PLACEMENT_3D('',#1204,#965,#966);
#840=AXIS2_PLACEMENT_3D('',#1205,#967,#968);
#841=AXIS2_PLACEMENT_3D('',#1211,#972,#973);
#842=AXIS2_PLACEMENT_3D('',#1217,#977,#978);
#843=AXIS2_PLACEMENT_3D('',#1218,#979,#980);
#844=AXIS2_PLACEMENT_3D('',#1219,#981,#982);
#845=AXIS2_PLACEMENT_3D('',#1220,#983,#984);
#846=AXIS2_PLACEMENT_3D('',#1226,#988,#989);
#847=AXIS2_PLACEMENT_3D('',#1229,#991,#992);
#848=AXIS2_PLACEMENT_3D('',#1230,#993,#994);
#849=AXIS2_PLACEMENT_3D('',#1234,#997,#998);
#850=AXIS2_PLACEMENT_3D('',#1237,#1000,#1001);
#851=AXIS2_PLACEMENT_3D('',#1238,#1002,#1003);
#852=AXIS2_PLACEMENT_3D('',#1241,#1004,#1005);
#853=AXIS2_PLACEMENT_3D('',#1245,#1007,#1008);
#854=AXIS2_PLACEMENT_3D('',#1249,#1010,#1011);
#855=AXIS2_PLACEMENT_3D('',#1253,#1013,#1014);
#856=AXIS2_PLACEMENT_3D('',#1255,#1016,#1017);
#857=AXIS2_PLACEMENT_3D('',#1260,#1019,#1020);
#858=AXIS2_PLACEMENT_3D('',#1264,#1022,#1023);
#859=AXIS2_PLACEMENT_3D('',#1268,#1025,#1026);
#860=AXIS2_PLACEMENT_3D('',#1271,#1028,#1029);
#861=AXIS2_PLACEMENT_3D('',#1275,#1031,#1032);
#862=AXIS2_PLACEMENT_3D('',#1278,#1034,#1035);
#863=AXIS2_PLACEMENT_3D('',#1279,#1036,#1037);
#864=AXIS2_PLACEMENT_3D('',#1284,#1039,#1040);
#865=AXIS2_PLACEMENT_3D('',#1288,#1042,#1043);
#866=AXIS2_PLACEMENT_3D('',#1292,#1045,#1046);
#867=AXIS2_PLACEMENT_3D('',#1295,#1048,#1049);
#868=AXIS2_PLACEMENT_3D('',#1296,#1050,#1051);
#869=AXIS2_PLACEMENT_3D('',#1300,#1053,#1054);
#870=AXIS2_PLACEMENT_3D('',#1302,#1056,#1057);
#871=AXIS2_PLACEMENT_3D('',#1306,#1060,#1061);
#872=AXIS2_PLACEMENT_3D('',#1308,#1062,#1063);
#873=AXIS2_PLACEMENT_3D('',#1310,#1065,#1066);
#874=AXIS2_PLACEMENT_3D('',#1314,#1069,#1070);
#875=AXIS2_PLACEMENT_3D('',#1316,#1071,#1072);
#876=AXIS2_PLACEMENT_3D('',#1318,#1074,#1075);
#877=AXIS2_PLACEMENT_3D('',#1322,#1078,#1079);
#878=AXIS2_PLACEMENT_3D('',#1324,#1080,#1081);
#879=AXIS2_PLACEMENT_3D('',#1326,#1083,#1084);
#880=AXIS2_PLACEMENT_3D('',#1328,#1086,#1087);
#881=AXIS2_PLACEMENT_3D('',#1329,#1088,#1089);
#882=AXIS2_PLACEMENT_3D('',#1332,#1092,#1093);
#883=AXIS2_PLACEMENT_3D('',#1334,#1095,#1096);
#884=AXIS2_PLACEMENT_3D('',#1336,#1098,#1099);
#885=AXIS2_PLACEMENT_3D('',#1338,#1101,#1102);
#886=AXIS2_PLACEMENT_3D('',#1340,#1104,#1105);
#887=AXIS2_PLACEMENT_3D('',#1342,#1107,#1108);
#888=AXIS2_PLACEMENT_3D('',#1344,#1110,#1111);
#889=AXIS2_PLACEMENT_3D('',#1345,#1112,#1113);
#890=AXIS2_PLACEMENT_3D('',#1347,#1115,#1116);
#891=AXIS2_PLACEMENT_3D('',#1349,#1118,#1119);
#892=AXIS2_PLACEMENT_3D('',#1351,#1121,#1122);
#893=DIRECTION('axis',(0.,0.,1.));
#894=DIRECTION('refdir',(1.,0.,0.));
#895=DIRECTION('center_axis',(1.,0.,0.));
#896=DIRECTION('ref_axis',(0.,0.,1.));
#897=DIRECTION('',(0.,0.,1.));
#898=DIRECTION('',(0.,-1.,0.));
#899=DIRECTION('',(0.,0.,-1.));
#900=DIRECTION('',(0.,-1.,0.));
#901=DIRECTION('center_axis',(0.,0.,-1.));
#902=DIRECTION('ref_axis',(1.,0.,0.));
#903=DIRECTION('',(1.,0.,0.));
#904=DIRECTION('',(0.,-1.,0.));
#905=DIRECTION('',(-1.,0.,0.));
#906=DIRECTION('center_axis',(-1.,0.,0.));
#907=DIRECTION('ref_axis',(0.,0.,-1.));
#908=DIRECTION('',(0.,0.,-1.));
#909=DIRECTION('',(0.,-1.,0.));
#910=DIRECTION('',(0.,0.,1.));
#911=DIRECTION('center_axis',(0.,0.,1.));
#912=DIRECTION('ref_axis',(-1.,0.,0.));
#913=DIRECTION('',(-1.,0.,0.));
#914=DIRECTION('',(1.,0.,0.));
#915=DIRECTION('center_axis',(0.,0.,-1.));
#916=DIRECTION('ref_axis',(1.,0.,0.));
#917=DIRECTION('',(-1.,0.,0.));
#918=DIRECTION('',(0.,-1.,0.));
#919=DIRECTION('',(1.,0.,0.));
#920=DIRECTION('',(0.,-1.,0.));
#921=DIRECTION('center_axis',(-1.,0.,0.));
#922=DIRECTION('ref_axis',(0.,0.,-1.));
#923=DIRECTION('',(0.,0.,1.));
#924=DIRECTION('',(0.,0.,-1.));
#925=DIRECTION('',(0.,-1.,0.));
#926=DIRECTION('center_axis',(0.,0.,1.));
#927=DIRECTION('ref_axis',(-1.,0.,0.));
#928=DIRECTION('',(1.,0.,0.));
#929=DIRECTION('',(-1.,0.,0.));
#930=DIRECTION('',(0.,-1.,0.));
#931=DIRECTION('center_axis',(1.,0.,0.));
#932=DIRECTION('ref_axis',(0.,0.,1.));
#933=DIRECTION('',(0.,0.,-1.));
#934=DIRECTION('',(0.,0.,1.));
#935=DIRECTION('center_axis',(0.,1.,0.));
#936=DIRECTION('ref_axis',(1.,0.,-2.22044604925031E-15));
#937=DIRECTION('',(-0.35112344158839,-0.936329177569045,0.));
#938=DIRECTION('center_axis',(0.,1.,0.));
#939=DIRECTION('ref_axis',(1.,0.,-2.22044604925031E-15));
#940=DIRECTION('',(2.07906842313098E-15,0.936329177569045,-0.35112344158839));
#941=DIRECTION('center_axis',(0.,-1.,0.));
#942=DIRECTION('ref_axis',(1.,0.,-2.22044604925031E-15));
#943=DIRECTION('center_axis',(0.,-0.351123441588393,-0.936329177569044));
#944=DIRECTION('ref_axis',(-1.,0.,0.));
#945=DIRECTION('',(-1.,0.,0.));
#946=DIRECTION('',(0.,0.936329177569044,-0.351123441588393));
#947=DIRECTION('',(1.,0.,0.));
#948=DIRECTION('center_axis',(0.936329177569044,-0.351123441588393,0.));
#949=DIRECTION('ref_axis',(0.,0.,-1.));
#950=DIRECTION('',(-0.351123441588393,-0.936329177569044,0.));
#951=DIRECTION('',(0.,0.,-1.));
#952=DIRECTION('',(0.,0.,1.));
#953=DIRECTION('center_axis',(0.,1.,0.));
#954=DIRECTION('ref_axis',(0.,0.,-1.));
#955=DIRECTION('center_axis',(0.,1.,0.));
#956=DIRECTION('ref_axis',(0.,0.,-1.));
#957=DIRECTION('',(-0.351123441588392,0.936329177569044,-2.07906842313098E-15));
#958=DIRECTION('center_axis',(0.,-1.,0.));
#959=DIRECTION('ref_axis',(0.,0.,-1.));
#960=DIRECTION('center_axis',(0.,1.,0.));
#961=DIRECTION('ref_axis',(2.22044604925031E-15,0.,1.));
#962=DIRECTION('',(0.,-0.936329177569045,-0.35112344158839));
#963=DIRECTION('center_axis',(0.,1.,0.));
#964=DIRECTION('ref_axis',(2.22044604925031E-15,0.,1.));
#965=DIRECTION('center_axis',(0.,-1.,0.));
#966=DIRECTION('ref_axis',(2.22044604925031E-15,0.,1.));
#967=DIRECTION('center_axis',(-0.936329177569044,-0.351123441588393,0.));
#968=DIRECTION('ref_axis',(0.,0.,1.));
#969=DIRECTION('',(0.,0.,1.));
#970=DIRECTION('',(-0.351123441588393,0.936329177569044,0.));
#971=DIRECTION('',(0.,0.,-1.));
#972=DIRECTION('center_axis',(0.,-0.351123441588393,0.936329177569044));
#973=DIRECTION('ref_axis',(1.,0.,0.));
#974=DIRECTION('',(0.,-0.936329177569044,-0.351123441588393));
#975=DIRECTION('',(1.,0.,0.));
#976=DIRECTION('',(-1.,0.,0.));
#977=DIRECTION('center_axis',(0.,1.,0.));
#978=DIRECTION('ref_axis',(-1.,0.,2.22044604925031E-15));
#979=DIRECTION('center_axis',(0.,1.,0.));
#980=DIRECTION('ref_axis',(-1.,0.,2.22044604925031E-15));
#981=DIRECTION('center_axis',(0.,-1.,0.));
#982=DIRECTION('ref_axis',(-1.,0.,2.22044604925031E-15));
#983=DIRECTION('center_axis',(0.,0.,1.));
#984=DIRECTION('ref_axis',(-1.,0.,0.));
#985=DIRECTION('',(0.,-1.,0.));
#986=DIRECTION('',(1.,0.,0.));
#987=DIRECTION('',(0.,-1.,0.));
#988=DIRECTION('center_axis',(0.,-1.,0.));
#989=DIRECTION('ref_axis',(2.22044604925031E-15,0.,1.));
#990=DIRECTION('',(0.,-1.,0.));
#991=DIRECTION('center_axis',(0.,1.,0.));
#992=DIRECTION('ref_axis',(2.22044604925031E-15,0.,1.));
#993=DIRECTION('center_axis',(1.,0.,0.));
#994=DIRECTION('ref_axis',(0.,0.,1.));
#995=DIRECTION('',(0.,-1.,0.));
#996=DIRECTION('',(0.,0.,-1.));
#997=DIRECTION('center_axis',(0.,-1.,0.));
#998=DIRECTION('ref_axis',(1.,0.,-2.22044604925031E-15));
#999=DIRECTION('',(0.,-1.,0.));
#1000=DIRECTION('center_axis',(0.,1.,0.));
#1001=DIRECTION('ref_axis',(1.,0.,-2.22044604925031E-15));
#1002=DIRECTION('center_axis',(0.,1.,0.));
#1003=DIRECTION('ref_axis',(-1.,0.,0.));
#1004=DIRECTION('center_axis',(0.,1.,0.));
#1005=DIRECTION('ref_axis',(1.,0.,-8.88178419700113E-15));
#1006=DIRECTION('',(-1.,0.,0.));
#1007=DIRECTION('center_axis',(0.,1.,0.));
#1008=DIRECTION('ref_axis',(0.,0.,-1.));
#1009=DIRECTION('',(0.,0.,1.));
#1010=DIRECTION('center_axis',(0.,1.,0.));
#1011=DIRECTION('ref_axis',(-1.,0.,8.88178419700113E-15));
#1012=DIRECTION('',(1.,0.,0.));
#1013=DIRECTION('center_axis',(0.,1.,0.));
#1014=DIRECTION('ref_axis',(8.88178419700113E-15,0.,1.));
#1015=DIRECTION('',(0.,0.,-1.));
#1016=DIRECTION('center_axis',(0.,1.,0.));
#1017=DIRECTION('ref_axis',(-1.,0.,0.));
#1018=DIRECTION('',(0.,0.,1.));
#1019=DIRECTION('center_axis',(0.,1.,0.));
#1020=DIRECTION('ref_axis',(-1.26882631385732E-15,0.,-1.));
#1021=DIRECTION('',(-1.,0.,0.));
#1022=DIRECTION('center_axis',(0.,1.,0.));
#1023=DIRECTION('ref_axis',(1.,0.,-1.26882631385732E-15));
#1024=DIRECTION('',(0.,0.,-1.));
#1025=DIRECTION('center_axis',(0.,1.,0.));
#1026=DIRECTION('ref_axis',(1.26882631385732E-15,0.,1.));
#1027=DIRECTION('',(1.,0.,7.93016446160826E-17));
#1028=DIRECTION('center_axis',(0.,1.,0.));
#1029=DIRECTION('ref_axis',(-1.,0.,1.26882631385732E-15));
#1030=DIRECTION('',(-1.,0.,0.));
#1031=DIRECTION('center_axis',(0.,1.,0.));
#1032=DIRECTION('ref_axis',(0.,0.,-1.));
#1033=DIRECTION('',(0.,0.,1.));
#1034=DIRECTION('center_axis',(0.,1.,0.));
#1035=DIRECTION('ref_axis',(-1.,0.,2.22044604925031E-15));
#1036=DIRECTION('center_axis',(0.,1.,0.));
#1037=DIRECTION('ref_axis',(-1.,0.,0.));
#1038=DIRECTION('',(0.,0.,1.));
#1039=DIRECTION('center_axis',(0.,-1.,0.));
#1040=DIRECTION('ref_axis',(8.88178419700113E-15,0.,1.));
#1041=DIRECTION('',(-1.,0.,0.));
#1042=DIRECTION('center_axis',(0.,-1.,0.));
#1043=DIRECTION('ref_axis',(-1.,0.,8.88178419700113E-15));
#1044=DIRECTION('',(0.,0.,-1.));
#1045=DIRECTION('center_axis',(0.,-1.,0.));
#1046=DIRECTION('ref_axis',(0.,0.,-1.));
#1047=DIRECTION('',(1.,0.,0.));
#1048=DIRECTION('center_axis',(0.,-1.,0.));
#1049=DIRECTION('ref_axis',(1.,0.,-8.88178419700113E-15));
#1050=DIRECTION('center_axis',(0.,1.,0.));
#1051=DIRECTION('ref_axis',(-1.26882631385732E-15,0.,-1.));
#1052=DIRECTION('',(0.,1.,0.));
#1053=DIRECTION('center_axis',(0.,1.,0.));
#1054=DIRECTION('ref_axis',(-1.26882631385732E-15,0.,-1.));
#1055=DIRECTION('',(0.,1.,0.));
#1056=DIRECTION('center_axis',(0.,0.,-1.));
#1057=DIRECTION('ref_axis',(-1.,0.,0.));
#1058=DIRECTION('',(-1.,0.,0.));
#1059=DIRECTION('',(0.,1.,0.));
#1060=DIRECTION('center_axis',(0.,1.,0.));
#1061=DIRECTION('ref_axis',(1.,0.,-1.26882631385732E-15));
#1062=DIRECTION('center_axis',(0.,1.,0.));
#1063=DIRECTION('ref_axis',(1.,0.,-1.26882631385732E-15));
#1064=DIRECTION('',(0.,1.,0.));
#1065=DIRECTION('center_axis',(1.,0.,0.));
#1066=DIRECTION('ref_axis',(0.,0.,-1.));
#1067=DIRECTION('',(0.,0.,-1.));
#1068=DIRECTION('',(0.,1.,0.));
#1069=DIRECTION('center_axis',(0.,1.,0.));
#1070=DIRECTION('ref_axis',(1.26882631385732E-15,0.,1.));
#1071=DIRECTION('center_axis',(0.,1.,0.));
#1072=DIRECTION('ref_axis',(1.26882631385732E-15,0.,1.));
#1073=DIRECTION('',(0.,1.,0.));
#1074=DIRECTION('center_axis',(-7.93016446160826E-17,0.,1.));
#1075=DIRECTION('ref_axis',(1.,0.,7.93016446160826E-17));
#1076=DIRECTION('',(1.,0.,7.93016446160826E-17));
#1077=DIRECTION('',(0.,1.,0.));
#1078=DIRECTION('center_axis',(0.,1.,0.));
#1079=DIRECTION('ref_axis',(-1.,0.,1.26882631385732E-15));
#1080=DIRECTION('center_axis',(0.,1.,0.));
#1081=DIRECTION('ref_axis',(-1.,0.,1.26882631385732E-15));
#1082=DIRECTION('',(0.,1.,0.));
#1083=DIRECTION('center_axis',(-1.,0.,0.));
#1084=DIRECTION('ref_axis',(0.,0.,1.));
#1085=DIRECTION('',(0.,0.,1.));
#1086=DIRECTION('center_axis',(0.,1.,0.));
#1087=DIRECTION('ref_axis',(-1.,0.,0.));
#1088=DIRECTION('center_axis',(-1.,0.,0.));
#1089=DIRECTION('ref_axis',(0.,0.,-1.));
#1090=DIRECTION('',(0.,-1.,0.));
#1091=DIRECTION('',(0.,-1.,0.));
#1092=DIRECTION('center_axis',(0.,-1.,0.));
#1093=DIRECTION('ref_axis',(8.88178419700113E-15,0.,1.));
#1094=DIRECTION('',(0.,-1.,0.));
#1095=DIRECTION('center_axis',(0.,0.,-1.));
#1096=DIRECTION('ref_axis',(1.,0.,0.));
#1097=DIRECTION('',(0.,-1.,0.));
#1098=DIRECTION('center_axis',(0.,-1.,0.));
#1099=DIRECTION('ref_axis',(-1.,0.,8.88178419700113E-15));
#1100=DIRECTION('',(0.,-1.,0.));
#1101=DIRECTION('center_axis',(1.,0.,0.));
#1102=DIRECTION('ref_axis',(0.,0.,1.));
#1103=DIRECTION('',(0.,-1.,0.));
#1104=DIRECTION('center_axis',(0.,-1.,0.));
#1105=DIRECTION('ref_axis',(0.,0.,-1.));
#1106=DIRECTION('',(0.,-1.,0.));
#1107=DIRECTION('center_axis',(0.,0.,1.));
#1108=DIRECTION('ref_axis',(-1.,0.,0.));
#1109=DIRECTION('',(0.,-1.,0.));
#1110=DIRECTION('center_axis',(0.,-1.,0.));
#1111=DIRECTION('ref_axis',(1.,0.,-8.88178419700113E-15));
#1112=DIRECTION('center_axis',(0.,0.,-1.));
#1113=DIRECTION('ref_axis',(1.,0.,0.));
#1114=DIRECTION('',(0.,-1.,0.));
#1115=DIRECTION('center_axis',(0.,-1.,0.));
#1116=DIRECTION('ref_axis',(0.,0.,-1.));
#1117=DIRECTION('',(0.,-1.,0.));
#1118=DIRECTION('center_axis',(-1.,0.,0.));
#1119=DIRECTION('ref_axis',(0.,0.,-1.));
#1120=DIRECTION('',(0.,-1.,0.));
#1121=DIRECTION('center_axis',(0.,-1.,0.));
#1122=DIRECTION('ref_axis',(-1.,0.,2.22044604925031E-15));
#1123=CARTESIAN_POINT('',(0.,0.,0.));
#1124=CARTESIAN_POINT('Origin',(25.4979500060478,70.,0.));
#1125=CARTESIAN_POINT('',(25.4979500060478,70.,0.));
#1126=CARTESIAN_POINT('',(25.4979500060478,70.,5.));
#1127=CARTESIAN_POINT('',(25.4979500060478,70.,4.44089209850063E-15));
#1128=CARTESIAN_POINT('',(25.4979500060478,60.,0.));
#1129=CARTESIAN_POINT('',(25.4979500060478,70.,0.));
#1130=CARTESIAN_POINT('',(25.4979500060478,60.,5.));
#1131=CARTESIAN_POINT('',(25.4979500060478,60.,4.44089209850063E-15));
#1132=CARTESIAN_POINT('',(25.4979500060478,70.,5.));
#1133=CARTESIAN_POINT('Origin',(20.4979500060478,70.,0.));
#1134=CARTESIAN_POINT('',(20.4979500060478,70.,0.));
#1135=CARTESIAN_POINT('',(10.2489750030239,70.,0.));
#1136=CARTESIAN_POINT('',(20.4979500060478,60.,0.));
#1137=CARTESIAN_POINT('',(20.4979500060478,70.,0.));
#1138=CARTESIAN_POINT('',(10.2489750030239,60.,0.));
#1139=CARTESIAN_POINT('Origin',(20.4979500060478,70.,5.));
#1140=CARTESIAN_POINT('',(20.4979500060478,70.,5.));
#1141=CARTESIAN_POINT('',(20.4979500060478,70.,2.5));
#1142=CARTESIAN_POINT('',(20.4979500060478,60.,5.));
#1143=CARTESIAN_POINT('',(20.4979500060478,70.,5.));
#1144=CARTESIAN_POINT('',(20.4979500060478,60.,2.5));
#1145=CARTESIAN_POINT('Origin',(25.4979500060478,70.,5.));
#1146=CARTESIAN_POINT('',(12.7489750030239,70.,5.));
#1147=CARTESIAN_POINT('',(12.7489750030239,60.,5.));
#1148=CARTESIAN_POINT('Origin',(-44.2559368281157,70.,-40.0535940861771));
#1149=CARTESIAN_POINT('',(-29.2559368281157,60.,-40.0535940861771));
#1150=CARTESIAN_POINT('',(-44.2559368281157,60.,-40.0535940861771));
#1151=CARTESIAN_POINT('',(-22.1279684140578,60.,-40.0535940861771));
#1152=CARTESIAN_POINT('',(-29.2559368281157,70.,-40.0535940861771));
#1153=CARTESIAN_POINT('',(-29.2559368281157,70.,-40.0535940861771));
#1154=CARTESIAN_POINT('',(-44.2559368281157,70.,-40.0535940861771));
#1155=CARTESIAN_POINT('',(-22.1279684140578,70.,-40.0535940861771));
#1156=CARTESIAN_POINT('',(-44.2559368281157,70.,-40.0535940861771));
#1157=CARTESIAN_POINT('Origin',(-44.2559368281157,70.,-32.0535940861771));
#1158=CARTESIAN_POINT('',(-44.2559368281157,60.,-32.0535940861771));
#1159=CARTESIAN_POINT('',(-44.2559368281157,60.,-16.0267970430886));
#1160=CARTESIAN_POINT('',(-44.2559368281157,70.,-32.0535940861771));
#1161=CARTESIAN_POINT('',(-44.2559368281157,70.,-16.0267970430886));
#1162=CARTESIAN_POINT('',(-44.2559368281157,70.,-32.0535940861771));
#1163=CARTESIAN_POINT('Origin',(-29.2559368281157,70.,-32.0535940861771));
#1164=CARTESIAN_POINT('',(-29.2559368281157,60.,-32.0535940861771));
#1165=CARTESIAN_POINT('',(-14.6279684140578,60.,-32.0535940861771));
#1166=CARTESIAN_POINT('',(-29.2559368281157,70.,-32.0535940861771));
#1167=CARTESIAN_POINT('',(-14.6279684140578,70.,-32.0535940861771));
#1168=CARTESIAN_POINT('',(-29.2559368281157,70.,-32.0535940861771));
#1169=CARTESIAN_POINT('Origin',(-29.2559368281157,70.,-40.0535940861771));
#1170=CARTESIAN_POINT('',(-29.2559368281157,60.,-20.0267970430886));
#1171=CARTESIAN_POINT('',(-29.2559368281157,70.,-20.0267970430886));
#1172=CARTESIAN_POINT('Origin',(56.,55.,-46.));
#1173=CARTESIAN_POINT('',(60.,57.,-46.));
#1174=CARTESIAN_POINT('',(58.5,53.,-46.));
#1175=CARTESIAN_POINT('',(60.,57.,-46.));
#1176=CARTESIAN_POINT('',(56.,53.,-48.5));
#1177=CARTESIAN_POINT('Origin',(56.,53.,-46.));
#1178=CARTESIAN_POINT('',(56.,57.,-50.));
#1179=CARTESIAN_POINT('',(56.,53.,-48.5));
#1180=CARTESIAN_POINT('Origin',(56.,57.,-46.));
#1181=CARTESIAN_POINT('Origin',(-28.,55.,-49.25));
#1182=CARTESIAN_POINT('',(-56.,53.,-48.5));
#1183=CARTESIAN_POINT('',(-28.,53.,-48.5));
#1184=CARTESIAN_POINT('',(-56.,57.,-50.));
#1185=CARTESIAN_POINT('',(-56.,53.,-48.5));
#1186=CARTESIAN_POINT('',(-28.,57.,-50.));
#1187=CARTESIAN_POINT('Origin',(59.25,55.,-23.));
#1188=CARTESIAN_POINT('',(60.,57.,46.));
#1189=CARTESIAN_POINT('',(58.5,53.,46.));
#1190=CARTESIAN_POINT('',(60.,57.,46.));
#1191=CARTESIAN_POINT('',(58.5,53.,-23.));
#1192=CARTESIAN_POINT('',(60.,57.,-23.));
#1193=CARTESIAN_POINT('Origin',(-56.,55.,-46.));
#1194=CARTESIAN_POINT('',(-58.5,53.,-46.));
#1195=CARTESIAN_POINT('Origin',(-56.,53.,-46.));
#1196=CARTESIAN_POINT('',(-60.,57.,-46.));
#1197=CARTESIAN_POINT('',(-58.5,53.,-46.));
#1198=CARTESIAN_POINT('Origin',(-56.,57.,-46.));
#1199=CARTESIAN_POINT('Origin',(56.,55.,46.));
#1200=CARTESIAN_POINT('',(56.,57.,50.));
#1201=CARTESIAN_POINT('',(56.,53.,48.5));
#1202=CARTESIAN_POINT('',(56.,57.,50.));
#1203=CARTESIAN_POINT('Origin',(56.,53.,46.));
#1204=CARTESIAN_POINT('Origin',(56.,57.,46.));
#1205=CARTESIAN_POINT('Origin',(-59.25,55.,23.));
#1206=CARTESIAN_POINT('',(-58.5,53.,46.));
#1207=CARTESIAN_POINT('',(-58.5,53.,23.));
#1208=CARTESIAN_POINT('',(-60.,57.,46.));
#1209=CARTESIAN_POINT('',(-58.5,53.,46.));
#1210=CARTESIAN_POINT('',(-60.,57.,23.));
#1211=CARTESIAN_POINT('Origin',(28.,55.,49.25));
#1212=CARTESIAN_POINT('',(-56.,57.,50.));
#1213=CARTESIAN_POINT('',(-56.,53.,48.5));
#1214=CARTESIAN_POINT('',(-56.,57.,50.));
#1215=CARTESIAN_POINT('',(28.,53.,48.5));
#1216=CARTESIAN_POINT('',(28.,57.,50.));
#1217=CARTESIAN_POINT('Origin',(-56.,55.,46.));
#1218=CARTESIAN_POINT('Origin',(-56.,53.,46.));
#1219=CARTESIAN_POINT('Origin',(-56.,57.,46.));
#1220=CARTESIAN_POINT('Origin',(56.,60.,50.));
#1221=CARTESIAN_POINT('',(56.,60.,50.));
#1222=CARTESIAN_POINT('',(56.,60.,50.));
#1223=CARTESIAN_POINT('',(-56.,60.,50.));
#1224=CARTESIAN_POINT('',(-56.,60.,50.));
#1225=CARTESIAN_POINT('',(-56.,60.,50.));
#1226=CARTESIAN_POINT('Origin',(56.,60.,46.));
#1227=CARTESIAN_POINT('',(60.,60.,46.));
#1228=CARTESIAN_POINT('',(60.,60.,46.));
#1229=CARTESIAN_POINT('Origin',(56.,60.,46.));
#1230=CARTESIAN_POINT('Origin',(60.,60.,-46.));
#1231=CARTESIAN_POINT('',(60.,60.,-46.));
#1232=CARTESIAN_POINT('',(60.,60.,-46.));
#1233=CARTESIAN_POINT('',(60.,60.,46.));
#1234=CARTESIAN_POINT('Origin',(56.,60.,-46.));
#1235=CARTESIAN_POINT('',(56.,60.,-50.));
#1236=CARTESIAN_POINT('',(56.,60.,-50.));
#1237=CARTESIAN_POINT('Origin',(56.,60.,-46.));
#1238=CARTESIAN_POINT('Origin',(-8.88178419700125E-15,53.,0.));
#1239=CARTESIAN_POINT('',(57.,53.,-46.));
#1240=CARTESIAN_POINT('',(56.,53.,-47.));
#1241=CARTESIAN_POINT('Origin',(56.,53.,-46.));
#1242=CARTESIAN_POINT('',(-56.,53.,-47.));
#1243=CARTESIAN_POINT('',(-56.,53.,-47.));
#1244=CARTESIAN_POINT('',(-57.,53.,-46.));
#1245=CARTESIAN_POINT('Origin',(-56.,53.,-46.));
#1246=CARTESIAN_POINT('',(-57.,53.,46.));
#1247=CARTESIAN_POINT('',(-57.,53.,46.));
#1248=CARTESIAN_POINT('',(-56.,53.,47.));
#1249=CARTESIAN_POINT('Origin',(-56.,53.,46.));
#1250=CARTESIAN_POINT('',(56.,53.,47.));
#1251=CARTESIAN_POINT('',(56.,53.,47.));
#1252=CARTESIAN_POINT('',(57.,53.,46.));
#1253=CARTESIAN_POINT('Origin',(56.,53.,46.));
#1254=CARTESIAN_POINT('',(57.,53.,-46.));
#1255=CARTESIAN_POINT('Origin',(0.,60.,8.88178419700125E-15));
#1256=CARTESIAN_POINT('',(-63.,60.,-46.));
#1257=CARTESIAN_POINT('',(-63.,60.,46.));
#1258=CARTESIAN_POINT('',(-63.,60.,-46.));
#1259=CARTESIAN_POINT('',(-56.,60.,-53.));
#1260=CARTESIAN_POINT('Origin',(-56.,60.,-46.));
#1261=CARTESIAN_POINT('',(56.,60.,-53.));
#1262=CARTESIAN_POINT('',(56.,60.,-53.));
#1263=CARTESIAN_POINT('',(63.,60.,-46.));
#1264=CARTESIAN_POINT('Origin',(56.,60.,-46.));
#1265=CARTESIAN_POINT('',(63.,60.,46.));
#1266=CARTESIAN_POINT('',(63.,60.,46.));
#1267=CARTESIAN_POINT('',(56.,60.,53.));
#1268=CARTESIAN_POINT('Origin',(56.,60.,46.));
#1269=CARTESIAN_POINT('',(-56.,60.,53.));
#1270=CARTESIAN_POINT('',(-56.,60.,53.));
#1271=CARTESIAN_POINT('Origin',(-56.,60.,46.));
#1272=CARTESIAN_POINT('',(-56.,60.,-50.));
#1273=CARTESIAN_POINT('',(56.,60.,-50.));
#1274=CARTESIAN_POINT('',(-60.,60.,-46.));
#1275=CARTESIAN_POINT('Origin',(-56.,60.,-46.));
#1276=CARTESIAN_POINT('',(-60.,60.,46.));
#1277=CARTESIAN_POINT('',(-60.,60.,-46.));
#1278=CARTESIAN_POINT('Origin',(-56.,60.,46.));
#1279=CARTESIAN_POINT('Origin',(0.,60.,8.88178419700125E-15));
#1280=CARTESIAN_POINT('',(57.,60.,-46.));
#1281=CARTESIAN_POINT('',(57.,60.,46.));
#1282=CARTESIAN_POINT('',(57.,60.,-46.));
#1283=CARTESIAN_POINT('',(56.,60.,47.));
#1284=CARTESIAN_POINT('Origin',(56.,60.,46.));
#1285=CARTESIAN_POINT('',(-56.,60.,47.));
#1286=CARTESIAN_POINT('',(56.,60.,47.));
#1287=CARTESIAN_POINT('',(-57.,60.,46.));
#1288=CARTESIAN_POINT('Origin',(-56.,60.,46.));
#1289=CARTESIAN_POINT('',(-57.,60.,-46.));
#1290=CARTESIAN_POINT('',(-57.,60.,46.));
#1291=CARTESIAN_POINT('',(-56.,60.,-47.));
#1292=CARTESIAN_POINT('Origin',(-56.,60.,-46.));
#1293=CARTESIAN_POINT('',(56.,60.,-47.));
#1294=CARTESIAN_POINT('',(-56.,60.,-47.));
#1295=CARTESIAN_POINT('Origin',(56.,60.,-46.));
#1296=CARTESIAN_POINT('Origin',(-56.,60.,-46.));
#1297=CARTESIAN_POINT('',(-63.,70.,-46.));
#1298=CARTESIAN_POINT('',(-63.,60.,-46.));
#1299=CARTESIAN_POINT('',(-56.,70.,-53.));
#1300=CARTESIAN_POINT('Origin',(-56.,70.,-46.));
#1301=CARTESIAN_POINT('',(-56.,60.,-53.));
#1302=CARTESIAN_POINT('Origin',(56.,60.,-53.));
#1303=CARTESIAN_POINT('',(56.,70.,-53.));
#1304=CARTESIAN_POINT('',(56.,70.,-53.));
#1305=CARTESIAN_POINT('',(56.,60.,-53.));
#1306=CARTESIAN_POINT('Origin',(56.,60.,-46.));
#1307=CARTESIAN_POINT('',(63.,70.,-46.));
#1308=CARTESIAN_POINT('Origin',(56.,70.,-46.));
#1309=CARTESIAN_POINT('',(63.,60.,-46.));
#1310=CARTESIAN_POINT('Origin',(63.,60.,46.));
#1311=CARTESIAN_POINT('',(63.,70.,46.));
#1312=CARTESIAN_POINT('',(63.,70.,46.));
#1313=CARTESIAN_POINT('',(63.,60.,46.));
#1314=CARTESIAN_POINT('Origin',(56.,60.,46.));
#1315=CARTESIAN_POINT('',(56.,70.,53.));
#1316=CARTESIAN_POINT('Origin',(56.,70.,46.));
#1317=CARTESIAN_POINT('',(56.,60.,53.));
#1318=CARTESIAN_POINT('Origin',(-56.,60.,53.));
#1319=CARTESIAN_POINT('',(-56.,70.,53.));
#1320=CARTESIAN_POINT('',(-56.,70.,53.));
#1321=CARTESIAN_POINT('',(-56.,60.,53.));
#1322=CARTESIAN_POINT('Origin',(-56.,60.,46.));
#1323=CARTESIAN_POINT('',(-63.,70.,46.));
#1324=CARTESIAN_POINT('Origin',(-56.,70.,46.));
#1325=CARTESIAN_POINT('',(-63.,60.,46.));
#1326=CARTESIAN_POINT('Origin',(-63.,60.,-46.));
#1327=CARTESIAN_POINT('',(-63.,70.,-46.));
#1328=CARTESIAN_POINT('Origin',(0.,70.,8.88178419700125E-15));
#1329=CARTESIAN_POINT('Origin',(57.,60.,46.));
#1330=CARTESIAN_POINT('',(57.,60.,-46.));
#1331=CARTESIAN_POINT('',(57.,60.,46.));
#1332=CARTESIAN_POINT('Origin',(56.,60.,46.));
#1333=CARTESIAN_POINT('',(56.,60.,47.));
#1334=CARTESIAN_POINT('Origin',(-56.,60.,47.));
#1335=CARTESIAN_POINT('',(-56.,60.,47.));
#1336=CARTESIAN_POINT('Origin',(-56.,60.,46.));
#1337=CARTESIAN_POINT('',(-57.,60.,46.));
#1338=CARTESIAN_POINT('Origin',(-57.,60.,-46.));
#1339=CARTESIAN_POINT('',(-57.,60.,-46.));
#1340=CARTESIAN_POINT('Origin',(-56.,60.,-46.));
#1341=CARTESIAN_POINT('',(-56.,60.,-47.));
#1342=CARTESIAN_POINT('Origin',(56.,60.,-47.));
#1343=CARTESIAN_POINT('',(56.,60.,-47.));
#1344=CARTESIAN_POINT('Origin',(56.,60.,-46.));
#1345=CARTESIAN_POINT('Origin',(-56.,60.,-50.));
#1346=CARTESIAN_POINT('',(-56.,60.,-50.));
#1347=CARTESIAN_POINT('Origin',(-56.,60.,-46.));
#1348=CARTESIAN_POINT('',(-60.,60.,-46.));
#1349=CARTESIAN_POINT('Origin',(-60.,60.,46.));
#1350=CARTESIAN_POINT('',(-60.,60.,46.));
#1351=CARTESIAN_POINT('Origin',(-56.,60.,46.));
#1352=UNCERTAINTY_MEASURE_WITH_UNIT(LENGTH_MEASURE(0.01),#1356,
'DISTANCE_ACCURACY_VALUE',
'Maximum model space distance between geometric entities at asserted c
onnectivities');
#1353=UNCERTAINTY_MEASURE_WITH_UNIT(LENGTH_MEASURE(0.01),#1356,
'DISTANCE_ACCURACY_VALUE',
'Maximum model space distance between geometric entities at asserted c
onnectivities');
#1354=(
GEOMETRIC_REPRESENTATION_CONTEXT(3)
GLOBAL_UNCERTAINTY_ASSIGNED_CONTEXT((#1352))
GLOBAL_UNIT_ASSIGNED_CONTEXT((#1356,#1358,#1359))
REPRESENTATION_CONTEXT('','3D')
);
#1355=(
GEOMETRIC_REPRESENTATION_CONTEXT(3)
GLOBAL_UNCERTAINTY_ASSIGNED_CONTEXT((#1353))
GLOBAL_UNIT_ASSIGNED_CONTEXT((#1356,#1358,#1359))
REPRESENTATION_CONTEXT('','3D')
);
#1356=(
LENGTH_UNIT()
NAMED_UNIT(*)
SI_UNIT(.MILLI.,.METRE.)
);
#1357=(
LENGTH_UNIT()
NAMED_UNIT(*)
SI_UNIT($,.METRE.)
);
#1358=(
NAMED_UNIT(*)
PLANE_ANGLE_UNIT()
SI_UNIT($,.RADIAN.)
);
#1359=(
NAMED_UNIT(*)
SI_UNIT($,.STERADIAN.)
SOLID_ANGLE_UNIT()
);
#1360=SHAPE_DEFINITION_REPRESENTATION(#1361,#1362);
#1361=PRODUCT_DEFINITION_SHAPE('',$,#1364);
#1362=SHAPE_REPRESENTATION('',(#820),#1354);
#1363=PRODUCT_DEFINITION_CONTEXT('part definition',#1368,'design');
#1364=PRODUCT_DEFINITION('(N\X\E3o salvo)','(N\X\E3o salvo)',#1365,#1363);
#1365=PRODUCT_DEFINITION_FORMATION('',$,#1370);
#1366=PRODUCT_RELATED_PRODUCT_CATEGORY('(N\X\E3o salvo)','(N\X\E3o sal
vo)',(#1370));
#1367=APPLICATION_PROTOCOL_DEFINITION('international standard',
'automotive_design',2009,#1368);
#1368=APPLICATION_CONTEXT(
'Core Data for Automotive Mechanical Design Process');
#1369=PRODUCT_CONTEXT('part definition',#1368,'mechanical');
#1370=PRODUCT('(N\X\E3o salvo)','(N\X\E3o salvo)',$,(#1369));
#1371=PRESENTATION_STYLE_ASSIGNMENT((#1374));
#1372=PRESENTATION_STYLE_ASSIGNMENT((#1375));
#1373=PRESENTATION_STYLE_ASSIGNMENT((#1376));
#1374=SURFACE_STYLE_USAGE(.BOTH.,#1377);
#1375=SURFACE_STYLE_USAGE(.BOTH.,#1378);
#1376=SURFACE_STYLE_USAGE(.BOTH.,#1379);
#1377=SURFACE_SIDE_STYLE('',(#1380));
#1378=SURFACE_SIDE_STYLE('',(#1381));
#1379=SURFACE_SIDE_STYLE('',(#1382));
#1380=SURFACE_STYLE_FILL_AREA(#1383);
#1381=SURFACE_STYLE_FILL_AREA(#1384);
#1382=SURFACE_STYLE_FILL_AREA(#1385);
#1383=FILL_AREA_STYLE('A\X\E7o - Acetinado',(#1386));
#1384=FILL_AREA_STYLE('Pintura - Esmalte com brilho (Amarelo)',(#1387));
#1385=FILL_AREA_STYLE('Pintura - Esmalte com brilho (Azul)',(#1388));
#1386=FILL_AREA_STYLE_COLOUR('A\X\E7o - Acetinado',#1389);
#1387=FILL_AREA_STYLE_COLOUR('Pintura - Esmalte com brilho (Amarelo)',#1390);
#1388=FILL_AREA_STYLE_COLOUR('Pintura - Esmalte com brilho (Azul)',#1391);
#1389=COLOUR_RGB('A\X\E7o - Acetinado',0.627450980392157,0.627450980392157,
0.627450980392157);
#1390=COLOUR_RGB('Pintura - Esmalte com brilho (Amarelo)',0.909803921568627,
0.67843137254902,0.137254901960784);
#1391=COLOUR_RGB('Pintura - Esmalte com brilho (Azul)',0.188235294117647,
0.231372549019608,0.588235294117647);
ENDSEC;
END-ISO-10303-21;
